<?xml version="1.0" encoding="utf-8"?>
<!-- Generator: Adobe Illustrator 17.0.0, SVG Export Plug-In . SVG Version: 6.00 Build 0)  -->
<!DOCTYPE svg PUBLIC "-//W3C//DTD SVG 1.1//EN" "http://www.w3.org/Graphics/SVG/1.1/DTD/svg11.dtd">
<svg version="1.1" id="Layer_1" xmlns="http://www.w3.org/2000/svg" xmlns:xlink="http://www.w3.org/1999/xlink" x="0px" y="0px"
	 width="200px" height="81.591px" viewBox="0 0 200 81.591" enable-background="new 0 0 200 81.591" xml:space="preserve">
<g>
	<path fill="#8B5E3C" d="M104.415-54.726v-17.742c0-0.869-0.069-1.492-0.207-1.871c-0.138-0.378-0.386-0.7-0.744-0.966
		c-0.235-0.174-0.613-0.307-1.135-0.399c-0.021,0-0.036,0-0.046,0c-0.317-0.051-0.521-0.115-0.613-0.192
		c-0.092-0.077-0.138-0.192-0.138-0.345c0-0.153,0.046-0.261,0.138-0.322c0.092-0.061,0.255-0.092,0.491-0.092
		c0.071,0,0.46,0.033,1.165,0.1c0.705,0.067,1.365,0.1,1.978,0.1c0.767,0,1.595-0.051,2.484-0.153
		c0.245-0.031,0.399-0.046,0.46-0.046c0.143,0,0.258,0.036,0.345,0.107c0.087,0.072,0.13,0.164,0.13,0.276
		c-0.01,0.225-0.199,0.429-0.567,0.613l-0.031,0.015c-0.021,0.01-0.067,0.036-0.138,0.077c-0.266,0.143-0.46,0.286-0.583,0.429
		c-0.184,0.215-0.314,0.478-0.391,0.79c-0.077,0.312-0.115,0.81-0.115,1.495v0.383v14.261c0,1.789-0.118,3.157-0.353,4.102
		c-0.235,0.945-0.619,1.837-1.15,2.676c-0.573,0.889-1.245,1.582-2.016,2.078c-0.772,0.496-1.567,0.744-2.384,0.744
		c-0.429,0-0.772-0.084-1.027-0.253c-0.256-0.169-0.383-0.396-0.383-0.682c0-0.429,0.102-0.872,0.307-1.326
		c0.205-0.455,0.404-0.683,0.598-0.683c0.092,0,0.294,0.215,0.606,0.644c0.312,0.429,0.687,0.644,1.127,0.644
		c0.664,0,1.196-0.401,1.595-1.204C104.215-52.27,104.415-53.356,104.415-54.726z"/>
	<path fill="#8B5E3C" d="M111.284-61.166c0-1.963,0.687-3.637,2.062-5.022c1.375-1.385,3.044-2.078,5.007-2.078
		c1.952,0,3.55,0.642,4.792,1.924c1.242,1.283,1.863,2.936,1.863,4.961c0,2.024-0.677,3.729-2.032,5.114
		c-1.355,1.385-3.018,2.078-4.991,2.078c-1.942,0-3.545-0.654-4.807-1.963C111.915-57.46,111.284-59.132,111.284-61.166z
		 M113.492-62.01c0,2.086,0.46,3.79,1.38,5.114c0.92,1.324,2.091,1.986,3.511,1.986c1.39,0,2.471-0.496,3.243-1.488
		c0.772-0.991,1.158-2.382,1.158-4.171c0-2.044-0.458-3.728-1.372-5.052c-0.915-1.324-2.057-1.986-3.427-1.986
		c-1.37,0-2.461,0.504-3.274,1.511C113.899-65.089,113.492-63.727,113.492-62.01z"/>
	<path fill="#8B5E3C" d="M128.689-58.145v-6.67c0-0.542-0.113-0.933-0.337-1.173c-0.225-0.24-0.593-0.361-1.104-0.361
		c-0.307,0-0.519-0.028-0.636-0.084c-0.118-0.056-0.176-0.151-0.176-0.284c0-0.123,0.041-0.217,0.123-0.284
		c0.082-0.066,0.276-0.13,0.583-0.192c0.051-0.01,0.133-0.031,0.245-0.061c0.47-0.122,0.864-0.25,1.181-0.383
		c0.296-0.133,0.675-0.317,1.135-0.552c0.46-0.235,0.751-0.353,0.874-0.353c0.123,0,0.204,0.041,0.245,0.123
		c0.041,0.082,0.066,0.291,0.077,0.629v1.855c0.715-0.756,1.408-1.319,2.078-1.687c0.67-0.368,1.327-0.552,1.971-0.552
		c0.807,0,1.546,0.241,2.216,0.721c0.669,0.481,1.163,1.13,1.48,1.947l0.598-0.552c0.838-0.798,1.546-1.349,2.124-1.656
		c0.577-0.307,1.168-0.46,1.771-0.46c0.644,0,1.257,0.164,1.84,0.491c0.583,0.327,1.058,0.782,1.426,1.365
		c0.317,0.501,0.544,1.094,0.682,1.779c0.138,0.685,0.207,1.809,0.207,3.374v3.051c0,0.859,0.061,1.436,0.184,1.733
		c0.123,0.297,0.358,0.547,0.705,0.751c0.123,0.072,0.258,0.125,0.406,0.161c0.148,0.036,0.319,0.054,0.514,0.054
		c0.266,0,0.45,0.036,0.552,0.107c0.102,0.072,0.153,0.194,0.153,0.368c0,0.112-0.046,0.202-0.138,0.268
		c-0.092,0.066-0.215,0.1-0.368,0.1c-0.072,0-0.412-0.026-1.02-0.077c-0.608-0.051-1.188-0.077-1.74-0.077
		c-0.808,0-1.579,0.046-2.316,0.138c-0.092,0.01-0.148,0.015-0.169,0.015c-0.102,0-0.189-0.033-0.261-0.1
		c-0.072-0.066-0.113-0.146-0.123-0.238c0-0.174,0.143-0.353,0.429-0.537c0.286-0.184,0.475-0.338,0.567-0.46
		c0.163-0.235,0.278-0.503,0.345-0.805c0.066-0.302,0.1-0.78,0.1-1.434v-3.527c0-1.871-0.228-3.192-0.682-3.964
		c-0.455-0.772-1.209-1.158-2.262-1.158c-0.951,0-1.702,0.287-2.254,0.859c-0.552,0.573-0.828,1.355-0.828,2.346v5.474
		c0,0.889,0.059,1.477,0.176,1.763c0.117,0.286,0.324,0.526,0.621,0.721c0.112,0.072,0.238,0.125,0.376,0.161
		c0.138,0.036,0.304,0.054,0.498,0.054c0.01,0,0.02,0,0.031,0c0.388,0.071,0.588,0.23,0.598,0.475c0,0.112-0.044,0.202-0.13,0.268
		c-0.087,0.066-0.202,0.1-0.345,0.1c-0.072,0-0.399-0.026-0.981-0.077c-0.583-0.051-1.125-0.077-1.625-0.077
		c-0.797,0-1.564,0.046-2.3,0.138c-0.102,0.01-0.164,0.015-0.184,0.015c-0.092,0-0.176-0.033-0.253-0.1s-0.115-0.146-0.115-0.238
		c0-0.174,0.143-0.353,0.429-0.537c0.286-0.184,0.475-0.343,0.567-0.475c0.163-0.225,0.278-0.488,0.345-0.79
		c0.066-0.302,0.1-0.78,0.1-1.434v-3.527c0-1.891-0.228-3.218-0.682-3.979c-0.455-0.762-1.214-1.143-2.277-1.143
		c-0.941,0-1.682,0.284-2.223,0.851c-0.542,0.567-0.813,1.352-0.813,2.354v5.474c0,0.849,0.061,1.431,0.184,1.748
		c0.123,0.317,0.353,0.572,0.69,0.767c0.163,0.072,0.393,0.133,0.69,0.184c0.01,0,0.025,0,0.046,0
		c0.266,0.02,0.439,0.066,0.521,0.138c0.082,0.072,0.123,0.184,0.123,0.338c0,0.122-0.038,0.215-0.115,0.276
		c-0.077,0.061-0.187,0.092-0.33,0.092c-0.092,0-0.427-0.026-1.004-0.077c-0.578-0.051-1.112-0.077-1.602-0.077
		c-0.828,0-1.62,0.046-2.377,0.138c-0.123,0.01-0.199,0.015-0.23,0.015c-0.102,0-0.194-0.033-0.276-0.1
		c-0.082-0.066-0.123-0.146-0.123-0.238c0-0.102,0.031-0.192,0.092-0.269c0.061-0.077,0.174-0.156,0.337-0.238
		c0.031-0.02,0.082-0.051,0.153-0.092c0.225-0.163,0.383-0.302,0.475-0.414c0.204-0.246,0.345-0.516,0.422-0.813
		C128.65-57.031,128.689-57.501,128.689-58.145z"/>
	<path fill="#8B5E3C" d="M159.51-56.198c-0.705,0.655-1.467,1.138-2.285,1.449c-0.818,0.312-1.733,0.468-2.745,0.468
		c-0.992,0-1.748-0.258-2.269-0.774c-0.521-0.516-0.782-1.265-0.782-2.246c0-1.257,0.575-2.251,1.725-2.982s3.202-1.372,6.157-1.925
		v-2.162c0-0.951-0.291-1.679-0.874-2.185c-0.583-0.506-1.421-0.759-2.515-0.759c-0.93,0-1.587,0.133-1.97,0.399
		c-0.383,0.266-0.575,0.716-0.575,1.349c0,0.266,0.038,0.572,0.115,0.92c0.077,0.348,0.115,0.557,0.115,0.629
		c0,0.143-0.069,0.261-0.207,0.353c-0.138,0.092-0.314,0.138-0.529,0.138c-0.409,0-0.757-0.11-1.043-0.33
		c-0.286-0.22-0.429-0.493-0.429-0.82c0-0.889,0.493-1.7,1.48-2.431c0.986-0.731,2.149-1.097,3.488-1.097
		c1.871,0,3.192,0.353,3.964,1.058c0.772,0.706,1.158,1.958,1.158,3.757v5.766c0,0.869,0.084,1.428,0.253,1.679
		c0.169,0.251,0.488,0.376,0.958,0.376c0.082,0,0.194-0.005,0.337-0.015c0.143-0.01,0.24-0.015,0.291-0.015
		c0.071,0,0.138,0.033,0.199,0.1c0.061,0.067,0.092,0.146,0.092,0.238c0,0.215-0.171,0.394-0.514,0.537
		c-0.343,0.143-0.78,0.215-1.311,0.215c-0.562,0-1.033-0.141-1.411-0.422C160.006-55.214,159.715-55.636,159.51-56.198z
		 M159.311-61.504c-2.218,0.46-3.752,0.976-4.6,1.549c-0.849,0.572-1.273,1.339-1.273,2.3c0,0.746,0.204,1.326,0.613,1.74
		c0.409,0.414,0.981,0.621,1.717,0.621c1.012,0,1.855-0.263,2.53-0.79c0.675-0.526,1.012-1.193,1.012-2.001V-61.504z"/>
	<path fill="#8B5E3C" d="M166.978-58.145v-6.701c0-0.501-0.123-0.876-0.368-1.127c-0.245-0.25-0.624-0.376-1.135-0.376
		c-0.297,0-0.501-0.028-0.613-0.084c-0.113-0.056-0.169-0.151-0.169-0.284c0-0.123,0.043-0.217,0.13-0.284
		c0.087-0.066,0.294-0.13,0.621-0.192c0.061-0.02,0.143-0.041,0.245-0.061c0.491-0.122,0.889-0.25,1.196-0.383
		c0.307-0.133,0.685-0.317,1.135-0.552c0.45-0.235,0.731-0.353,0.844-0.353c0.123,0,0.207,0.041,0.253,0.123
		c0.046,0.082,0.069,0.291,0.069,0.629v2.07c0.828-0.991,1.459-1.648,1.894-1.971c0.434-0.322,0.861-0.483,1.28-0.483
		c0.48,0,0.935,0.169,1.365,0.506c0.429,0.338,0.644,0.665,0.644,0.981c0,0.246-0.133,0.521-0.399,0.828
		c-0.266,0.307-0.491,0.46-0.675,0.46c-0.092,0-0.353-0.128-0.782-0.383c-0.429-0.256-0.848-0.383-1.257-0.383
		c-0.542,0-1.027,0.248-1.457,0.744c-0.43,0.496-0.644,1.046-0.644,1.649v5.183c0,1.042,0.077,1.748,0.23,2.116
		c0.153,0.368,0.44,0.66,0.859,0.874c0.123,0.061,0.258,0.107,0.406,0.138c0.148,0.031,0.319,0.046,0.514,0.046
		c0.317,0.02,0.521,0.066,0.613,0.138c0.092,0.072,0.138,0.184,0.138,0.338c0,0.102-0.051,0.189-0.153,0.261
		c-0.102,0.071-0.23,0.107-0.383,0.107c-0.072,0-0.44-0.026-1.104-0.077s-1.288-0.077-1.871-0.077c-0.849,0-1.667,0.046-2.453,0.138
		c-0.123,0.01-0.199,0.015-0.23,0.015c-0.102,0-0.189-0.033-0.261-0.1c-0.072-0.066-0.107-0.146-0.107-0.238
		c0-0.082,0.026-0.156,0.077-0.223c0.051-0.066,0.169-0.161,0.353-0.284c0.184-0.102,0.319-0.189,0.406-0.261
		c0.087-0.071,0.166-0.153,0.238-0.245c0.194-0.246,0.335-0.539,0.422-0.882C166.935-57.146,166.978-57.593,166.978-58.145z"/>
	<path fill="#8B5E3C" d="M185.793-56.52c-0.675,0.777-1.403,1.355-2.185,1.733c-0.782,0.378-1.654,0.567-2.614,0.567
		c-1.533,0-2.804-0.613-3.81-1.84c-1.007-1.227-1.511-2.77-1.511-4.631c0-2.065,0.644-3.823,1.932-5.275
		c1.288-1.451,2.811-2.177,4.57-2.177c0.613,0,1.224,0.102,1.832,0.307c0.608,0.204,1.214,0.501,1.817,0.889v-6.241
		c0-1.012-0.094-1.684-0.284-2.016c-0.189-0.332-0.534-0.498-1.035-0.498h-0.322c-0.225,0-0.401-0.038-0.529-0.115
		c-0.128-0.077-0.191-0.186-0.191-0.33c0-0.143,0.245-0.276,0.736-0.399h0.061c0.245-0.041,0.498-0.1,0.759-0.176
		c0.261-0.077,0.519-0.166,0.775-0.268c0.358-0.143,0.751-0.342,1.181-0.598c0.429-0.255,0.705-0.383,0.828-0.383
		c0.123,0,0.217,0.046,0.284,0.138c0.066,0.092,0.1,0.225,0.1,0.399c0,0.041-0.01,0.169-0.031,0.383
		c-0.092,1.493-0.138,3.072-0.138,4.738v13.969c0,1.084,0.089,1.774,0.268,2.07c0.179,0.297,0.508,0.445,0.989,0.445h0.261
		c0.184,0.01,0.327,0.046,0.429,0.107c0.102,0.061,0.158,0.153,0.169,0.276c0,0.256-0.348,0.424-1.043,0.506
		c-0.184,0.02-0.332,0.041-0.445,0.061c-0.552,0.082-1.102,0.202-1.648,0.361c-0.547,0.158-0.836,0.238-0.866,0.238
		c-0.113-0.01-0.197-0.064-0.253-0.161c-0.056-0.097-0.084-0.233-0.084-0.407V-56.52z M185.793-58.774v-5.336
		c0-0.48-0.069-0.869-0.207-1.165s-0.36-0.583-0.667-0.859c-0.439-0.388-0.958-0.693-1.556-0.912s-1.204-0.33-1.817-0.33
		c-1.176,0-2.144,0.506-2.906,1.518s-1.142,2.326-1.142,3.941c0,1.717,0.498,3.195,1.495,4.432c0.996,1.237,2.164,1.855,3.504,1.855
		c0.991,0,1.789-0.286,2.392-0.859C185.491-57.062,185.793-57.823,185.793-58.774z"/>
	<path fill="#8B5E3C" d="M103.985-21.181v-13.601c0-0.879-0.067-1.505-0.199-1.879c-0.133-0.373-0.363-0.693-0.69-0.958
		c-0.123-0.102-0.266-0.186-0.429-0.253c-0.164-0.066-0.373-0.125-0.629-0.176c-0.266-0.041-0.437-0.094-0.514-0.161
		c-0.077-0.066-0.115-0.161-0.115-0.284c0-0.163,0.043-0.279,0.13-0.345c0.087-0.066,0.243-0.1,0.468-0.1
		c0.061,0,0.419,0.028,1.073,0.084c0.654,0.056,1.278,0.084,1.871,0.084c0.409,0,1.086-0.028,2.032-0.084
		c0.945-0.056,1.695-0.084,2.246-0.084c2.382,0,4.242,0.539,5.582,1.618c1.339,1.079,2.009,2.574,2.009,4.485
		c0,1.677-0.654,3.1-1.963,4.271c-1.309,1.171-2.913,1.756-4.815,1.756c-0.869,0-1.579-0.071-2.132-0.215
		c-0.552-0.143-0.828-0.322-0.828-0.536c0.01-0.102,0.046-0.184,0.107-0.246c0.061-0.061,0.143-0.097,0.245-0.107
		c0.031,0,0.235,0.038,0.613,0.115c0.378,0.077,0.746,0.115,1.104,0.115c1.738,0,3.064-0.378,3.979-1.135
		c0.915-0.756,1.372-1.845,1.372-3.266c0-1.717-0.603-3.105-1.809-4.163c-1.206-1.058-2.801-1.587-4.784-1.587
		c-0.583,0-0.981,0.084-1.196,0.253c-0.215,0.169-0.322,0.463-0.322,0.882v15.549c0,1.084,0.082,1.802,0.245,2.154
		c0.163,0.353,0.46,0.647,0.889,0.882c0.255,0.143,0.618,0.256,1.089,0.337c0.031,0.01,0.056,0.015,0.077,0.015
		c0.307,0.041,0.508,0.097,0.606,0.168c0.097,0.072,0.146,0.174,0.146,0.307c0,0.163-0.044,0.276-0.13,0.337
		c-0.087,0.061-0.263,0.092-0.529,0.092c-0.44,0-1.056-0.031-1.848-0.092c-0.792-0.061-1.372-0.092-1.741-0.092
		c-0.93,0-1.896,0.051-2.898,0.153c-0.215,0.02-0.348,0.031-0.399,0.031c-0.143,0-0.256-0.036-0.337-0.107
		c-0.082-0.071-0.123-0.169-0.123-0.291c0-0.225,0.199-0.419,0.598-0.583c0.031-0.01,0.051-0.015,0.061-0.015
		c0.204-0.071,0.393-0.153,0.567-0.246c0.174-0.092,0.327-0.199,0.46-0.322c0.317-0.276,0.539-0.59,0.667-0.943
		C103.921-19.716,103.985-20.322,103.985-21.181z"/>
	<path fill="#8B5E3C" d="M128.811-18.834c-0.583,0.716-1.237,1.245-1.963,1.587c-0.726,0.342-1.544,0.513-2.453,0.513
		c-1.452,0-2.517-0.409-3.197-1.227c-0.68-0.818-1.02-2.101-1.02-3.849v-5.659c0-0.491-0.044-0.833-0.13-1.027
		c-0.087-0.194-0.238-0.343-0.452-0.445c-0.113-0.051-0.291-0.102-0.537-0.153c-0.358-0.061-0.537-0.189-0.537-0.383
		c0-0.225,0.251-0.348,0.751-0.368c0.082,0,0.143-0.005,0.184-0.015c0.869-0.061,1.672-0.153,2.408-0.276
		c0.133-0.02,0.209-0.031,0.23-0.031c0.133,0,0.23,0.046,0.291,0.138c0.061,0.092,0.092,0.235,0.092,0.429
		c0,0.143-0.003,0.263-0.008,0.36c-0.005,0.097-0.013,0.192-0.023,0.284c-0.01,0.082-0.021,0.199-0.031,0.353
		c-0.051,0.797-0.077,1.477-0.077,2.039v4.554c0,1.421,0.256,2.474,0.767,3.159c0.511,0.685,1.293,1.027,2.346,1.027
		c0.961,0,1.766-0.309,2.415-0.928c0.649-0.618,0.974-1.398,0.974-2.339v-6.195c0-0.593-0.038-0.986-0.115-1.181
		c-0.077-0.194-0.222-0.343-0.437-0.445c-0.102-0.041-0.322-0.077-0.659-0.107c-0.337-0.031-0.506-0.153-0.506-0.368
		c0-0.153,0.061-0.266,0.184-0.338c0.123-0.071,0.322-0.107,0.598-0.107h0.414c0.491,0,1.012-0.056,1.564-0.169
		c0.552-0.112,0.853-0.169,0.905-0.169c0.133,0,0.225,0.044,0.276,0.13c0.051,0.087,0.077,0.233,0.077,0.437
		c0,0.143-0.003,0.263-0.008,0.36c-0.005,0.097-0.013,0.192-0.023,0.284c-0.021,0.389-0.036,0.78-0.046,1.173
		c-0.01,0.394-0.015,0.8-0.015,1.219v7.13c0,0.603,0.051,0.987,0.153,1.15c0.102,0.163,0.307,0.271,0.613,0.322
		c0.143,0.031,0.332,0.051,0.567,0.061c0.409,0.031,0.613,0.138,0.613,0.322c0,0.133-0.049,0.23-0.146,0.292
		c-0.097,0.061-0.284,0.102-0.56,0.122l-2.53,0.184h-0.322c-0.256,0-0.424-0.056-0.506-0.169c-0.082-0.112-0.123-0.358-0.123-0.736
		V-18.834z"/>
	<path fill="#8B5E3C" d="M136.003-35.503c0-1.053-0.09-1.735-0.268-2.047c-0.179-0.312-0.519-0.468-1.02-0.468h-0.245
		c-0.184,0-0.327-0.033-0.429-0.1c-0.102-0.066-0.159-0.161-0.169-0.284c0.01-0.133,0.061-0.233,0.153-0.299
		c0.092-0.066,0.327-0.135,0.705-0.207c0.041-0.01,0.107-0.025,0.199-0.046c0.46-0.123,0.833-0.24,1.119-0.353
		c0.347-0.143,0.736-0.343,1.165-0.598c0.429-0.255,0.71-0.383,0.843-0.383c0.123,0,0.215,0.049,0.276,0.146
		c0.061,0.097,0.092,0.238,0.092,0.422c0,0.061-0.01,0.235-0.031,0.521c-0.102,1.523-0.153,3.046-0.153,4.569v6.149
		c0.818-0.665,1.589-1.155,2.316-1.472c0.726-0.317,1.451-0.475,2.177-0.475c1.554,0,2.826,0.578,3.818,1.733
		c0.991,1.155,1.487,2.663,1.487,4.524c0,2.239-0.596,4.071-1.786,5.497c-1.191,1.426-2.712,2.139-4.562,2.139
		c-1.278,0-2.51-0.429-3.696-1.288c-0.327-0.235-0.537-0.353-0.629-0.353c-0.174,0-0.368,0.268-0.583,0.805
		c-0.215,0.537-0.44,0.805-0.675,0.805c-0.082,0-0.146-0.041-0.192-0.123c-0.046-0.082-0.069-0.199-0.069-0.353
		c0-0.041,0.01-0.138,0.031-0.291c0.082-0.593,0.123-1.155,0.123-1.687V-35.503z M138.242-21.119v0.215
		c0,0.48,0.038,0.854,0.115,1.119c0.077,0.266,0.202,0.516,0.376,0.752c0.409,0.521,0.917,0.935,1.526,1.242
		c0.608,0.307,1.214,0.46,1.817,0.46c1.288,0,2.331-0.47,3.128-1.411c0.797-0.94,1.196-2.182,1.196-3.726
		c0-1.799-0.488-3.332-1.465-4.6c-0.976-1.268-2.129-1.902-3.458-1.902c-0.849,0-1.6,0.245-2.254,0.736
		c-0.654,0.491-0.981,1.058-0.981,1.702V-21.119z"/>
	<path fill="#8B5E3C" d="M151.797-20.46v-15.043c0-1.083-0.087-1.773-0.261-2.07c-0.174-0.296-0.506-0.445-0.997-0.445h-0.276
		c-0.174,0-0.312-0.033-0.414-0.1c-0.102-0.066-0.153-0.161-0.153-0.284c0-0.225,0.266-0.399,0.797-0.521l0.031-0.015
		c0.245-0.041,0.473-0.092,0.682-0.153c0.21-0.061,0.417-0.133,0.621-0.215c0.358-0.143,0.751-0.343,1.181-0.598
		c0.429-0.255,0.705-0.383,0.828-0.383c0.133,0,0.235,0.049,0.307,0.146c0.071,0.097,0.107,0.238,0.107,0.422
		c0,0.041-0.005,0.158-0.015,0.353c-0.113,1.472-0.169,3.051-0.169,4.738v14.2c0,0.92,0.071,1.523,0.215,1.809
		c0.143,0.286,0.414,0.521,0.813,0.705c0.163,0.072,0.419,0.133,0.767,0.184c0.01,0,0.021,0,0.031,0
		c0.286,0.02,0.473,0.066,0.56,0.138c0.087,0.072,0.13,0.184,0.13,0.338c0,0.112-0.046,0.202-0.138,0.268
		c-0.092,0.066-0.215,0.1-0.368,0.1c-0.041,0-0.366-0.026-0.974-0.077c-0.608-0.051-1.204-0.077-1.786-0.077
		c-0.879,0-1.707,0.046-2.484,0.138c-0.123,0.01-0.199,0.015-0.23,0.015c-0.102,0-0.194-0.033-0.276-0.1
		c-0.082-0.066-0.123-0.146-0.123-0.238c0-0.102,0.036-0.197,0.107-0.284c0.071-0.087,0.22-0.191,0.445-0.314
		c0.051-0.031,0.107-0.066,0.169-0.107c0.174-0.102,0.301-0.194,0.383-0.276c0.184-0.194,0.312-0.439,0.383-0.736
		C151.761-19.238,151.797-19.744,151.797-20.46z"/>
	<path fill="#8B5E3C" d="M159.863-20.46v-5.659c0-1.063-0.095-1.748-0.284-2.055c-0.189-0.307-0.544-0.46-1.066-0.46
		c-0.297,0-0.516-0.031-0.659-0.092c-0.143-0.061-0.215-0.153-0.215-0.276c0-0.204,0.25-0.373,0.751-0.506h0.031
		c0.235-0.041,0.468-0.097,0.698-0.169c0.23-0.071,0.468-0.163,0.713-0.276c0.296-0.123,0.67-0.304,1.119-0.544
		c0.45-0.24,0.746-0.36,0.889-0.36c0.133,0,0.225,0.031,0.276,0.092c0.051,0.061,0.077,0.199,0.077,0.414
		c0,0.041-0.005,0.199-0.015,0.475c-0.051,1.533-0.077,3.087-0.077,4.661v4.785c0,0.818,0.074,1.388,0.222,1.71
		c0.148,0.322,0.427,0.59,0.836,0.805c0.123,0.061,0.258,0.107,0.406,0.138c0.148,0.031,0.319,0.046,0.514,0.046
		c0.317,0.02,0.521,0.066,0.613,0.138c0.092,0.072,0.138,0.184,0.138,0.338c0,0.102-0.051,0.189-0.153,0.261
		c-0.102,0.071-0.23,0.107-0.383,0.107c-0.072,0-0.44-0.026-1.104-0.077c-0.665-0.051-1.288-0.077-1.871-0.077
		c-0.849,0-1.667,0.046-2.453,0.138c-0.123,0.01-0.199,0.015-0.23,0.015c-0.102,0-0.189-0.033-0.261-0.1
		c-0.072-0.066-0.107-0.146-0.107-0.238c0-0.102,0.031-0.192,0.092-0.269c0.061-0.077,0.174-0.156,0.337-0.238
		c0.031-0.02,0.082-0.051,0.153-0.092c0.225-0.163,0.388-0.302,0.491-0.414c0.194-0.246,0.33-0.516,0.406-0.813
		C159.825-19.345,159.863-19.816,159.863-20.46z M159.71-35.257c0-0.297,0.176-0.654,0.529-1.074
		c0.353-0.419,0.636-0.629,0.851-0.629c0.194,0,0.468,0.202,0.82,0.605c0.353,0.404,0.529,0.739,0.529,1.004
		c0,0.256-0.169,0.59-0.506,1.004c-0.337,0.414-0.639,0.621-0.905,0.621c-0.266,0-0.552-0.176-0.859-0.529
		C159.863-34.606,159.71-34.94,159.71-35.257z"/>
	<path fill="#8B5E3C" d="M166.089-18.359l-0.031-2.607c0-0.225,0.033-0.391,0.1-0.498c0.066-0.107,0.166-0.161,0.299-0.161
		c0.194,0,0.332,0.236,0.414,0.706c0.071,0.368,0.143,0.665,0.215,0.889c0.286,0.828,0.69,1.454,1.211,1.879
		c0.521,0.424,1.155,0.636,1.901,0.636c0.787,0,1.434-0.243,1.94-0.728c0.506-0.485,0.759-1.112,0.759-1.879
		c0-0.93-0.945-1.835-2.837-2.714c-0.358-0.163-0.634-0.296-0.828-0.399c-1.033-0.48-1.769-0.994-2.208-1.541
		c-0.44-0.547-0.659-1.214-0.659-2.001c0-1.114,0.373-2.001,1.119-2.66c0.746-0.66,1.758-0.989,3.036-0.989
		c1.002,0,1.776,0.102,2.323,0.307c0.546,0.205,0.825,0.491,0.836,0.859l0.031,1.763c0,0.194-0.021,0.333-0.061,0.414
		c-0.041,0.082-0.113,0.122-0.215,0.122c-0.163,0-0.291-0.161-0.383-0.483c-0.092-0.322-0.184-0.549-0.276-0.682
		c-0.338-0.48-0.752-0.856-1.242-1.127c-0.49-0.271-0.996-0.406-1.518-0.406c-0.654,0-1.178,0.169-1.572,0.506
		c-0.394,0.337-0.59,0.782-0.59,1.334c0,0.992,1.201,2.004,3.604,3.036c0.173,0.072,0.307,0.128,0.399,0.169
		c0.879,0.389,1.526,0.869,1.94,1.441c0.414,0.572,0.621,1.278,0.621,2.116c0,1.288-0.424,2.354-1.273,3.197
		c-0.849,0.843-1.922,1.265-3.22,1.265c-0.767,0-1.625-0.235-2.576-0.705c-0.256-0.123-0.424-0.194-0.506-0.215
		c-0.051-0.01-0.123-0.025-0.215-0.046C166.267-17.623,166.089-17.889,166.089-18.359z"/>
	<path fill="#8B5E3C" d="M178.387-20.46v-15.043c0-1.053-0.095-1.735-0.284-2.047c-0.189-0.312-0.534-0.468-1.035-0.468h-0.245
		c-0.184,0-0.33-0.036-0.437-0.107c-0.107-0.071-0.161-0.163-0.161-0.276c0-0.133,0.048-0.233,0.146-0.299
		c0.097-0.066,0.335-0.135,0.713-0.207c0.041-0.01,0.107-0.025,0.199-0.046c0.46-0.123,0.828-0.24,1.104-0.353
		c0.358-0.143,0.746-0.343,1.166-0.598c0.419-0.255,0.69-0.383,0.813-0.383c0.133,0,0.24,0.056,0.322,0.169
		c0.082,0.112,0.123,0.266,0.123,0.46c0,0.041-0.01,0.163-0.031,0.368c-0.123,1.462-0.184,3.016-0.184,4.661v6.379
		c0.828-0.756,1.623-1.319,2.385-1.687c0.761-0.368,1.505-0.552,2.231-0.552c0.736,0,1.431,0.164,2.085,0.491
		c0.654,0.327,1.191,0.782,1.61,1.365c0.378,0.511,0.646,1.13,0.805,1.855c0.158,0.726,0.238,1.825,0.238,3.297v3.051
		c0,0.889,0.061,1.477,0.184,1.763c0.123,0.286,0.347,0.526,0.675,0.721c0.123,0.072,0.258,0.125,0.407,0.161
		c0.148,0.036,0.324,0.054,0.529,0.054c0.256,0,0.434,0.036,0.537,0.107c0.102,0.072,0.153,0.194,0.153,0.368
		c0,0.112-0.044,0.202-0.13,0.268c-0.087,0.066-0.202,0.1-0.345,0.1c-0.061,0-0.404-0.026-1.027-0.077
		c-0.623-0.051-1.211-0.077-1.763-0.077c-0.808,0-1.579,0.046-2.316,0.138c-0.092,0.01-0.148,0.015-0.168,0.015
		c-0.102,0-0.189-0.033-0.261-0.1c-0.072-0.066-0.112-0.146-0.122-0.238c0-0.153,0.143-0.327,0.429-0.521
		c0.286-0.194,0.48-0.358,0.582-0.491c0.153-0.204,0.263-0.457,0.33-0.759c0.066-0.301,0.099-0.79,0.099-1.464v-3.527
		c0-1.891-0.268-3.218-0.805-3.979c-0.537-0.762-1.439-1.143-2.706-1.143c-1.145,0-2.037,0.281-2.676,0.843
		c-0.639,0.562-0.958,1.349-0.958,2.362v5.474c0,0.818,0.074,1.388,0.223,1.71c0.148,0.322,0.427,0.59,0.836,0.805
		c0.112,0.061,0.245,0.107,0.399,0.138s0.327,0.046,0.521,0.046c0.317,0.02,0.521,0.066,0.613,0.138
		c0.092,0.072,0.138,0.184,0.138,0.338c0,0.112-0.046,0.202-0.138,0.268c-0.092,0.066-0.215,0.1-0.368,0.1
		c-0.071,0-0.442-0.026-1.112-0.077c-0.67-0.051-1.296-0.077-1.879-0.077c-0.828,0-1.631,0.046-2.408,0.138
		c-0.122,0.01-0.199,0.015-0.23,0.015c-0.102,0-0.189-0.033-0.261-0.1s-0.107-0.146-0.107-0.238c0-0.102,0.031-0.192,0.092-0.269
		c0.061-0.077,0.174-0.156,0.338-0.238c0.041-0.031,0.102-0.077,0.184-0.138c0.194-0.143,0.332-0.266,0.414-0.368
		c0.194-0.246,0.332-0.516,0.414-0.813C178.346-19.345,178.387-19.816,178.387-20.46z"/>
	<path fill="#8B5E3C" d="M195.438-20.46v-5.659c0-1.063-0.095-1.748-0.284-2.055c-0.189-0.307-0.544-0.46-1.066-0.46
		c-0.297,0-0.516-0.031-0.66-0.092s-0.215-0.153-0.215-0.276c0-0.204,0.25-0.373,0.751-0.506h0.031
		c0.235-0.041,0.468-0.097,0.698-0.169c0.23-0.071,0.468-0.163,0.713-0.276c0.296-0.123,0.67-0.304,1.119-0.544
		c0.45-0.24,0.746-0.36,0.889-0.36c0.133,0,0.225,0.031,0.276,0.092c0.051,0.061,0.077,0.199,0.077,0.414
		c0,0.041-0.005,0.199-0.015,0.475c-0.051,1.533-0.077,3.087-0.077,4.661v4.785c0,0.818,0.074,1.388,0.222,1.71
		s0.427,0.59,0.836,0.805c0.122,0.061,0.258,0.107,0.406,0.138c0.148,0.031,0.319,0.046,0.513,0.046
		c0.317,0.02,0.521,0.066,0.613,0.138c0.092,0.072,0.138,0.184,0.138,0.338c0,0.102-0.051,0.189-0.153,0.261
		c-0.102,0.071-0.23,0.107-0.383,0.107c-0.072,0-0.44-0.026-1.104-0.077s-1.288-0.077-1.87-0.077c-0.849,0-1.667,0.046-2.454,0.138
		c-0.123,0.01-0.199,0.015-0.23,0.015c-0.102,0-0.189-0.033-0.261-0.1c-0.072-0.066-0.107-0.146-0.107-0.238
		c0-0.102,0.031-0.192,0.092-0.269c0.061-0.077,0.174-0.156,0.337-0.238c0.031-0.02,0.082-0.051,0.153-0.092
		c0.225-0.163,0.388-0.302,0.491-0.414c0.194-0.246,0.33-0.516,0.406-0.813C195.4-19.345,195.438-19.816,195.438-20.46z
		 M195.285-35.257c0-0.297,0.176-0.654,0.529-1.074c0.353-0.419,0.637-0.629,0.851-0.629c0.194,0,0.468,0.202,0.82,0.605
		c0.353,0.404,0.529,0.739,0.529,1.004c0,0.256-0.168,0.59-0.506,1.004c-0.337,0.414-0.639,0.621-0.905,0.621
		s-0.552-0.176-0.859-0.529C195.438-34.606,195.285-34.94,195.285-35.257z"/>
	<path fill="#8B5E3C" d="M203.259-20.46v-6.624c0-0.562-0.113-0.966-0.338-1.212c-0.225-0.245-0.593-0.368-1.104-0.368
		c-0.307,0-0.519-0.028-0.637-0.084c-0.117-0.056-0.176-0.151-0.176-0.284c0-0.143,0.043-0.248,0.13-0.314s0.269-0.11,0.544-0.13
		c0.031,0,0.061-0.005,0.092-0.015c0.204-0.041,0.353-0.077,0.445-0.107c0.624-0.215,1.244-0.473,1.863-0.774
		c0.618-0.302,0.963-0.452,1.035-0.452c0.133,0,0.225,0.046,0.276,0.138c0.051,0.092,0.077,0.286,0.077,0.582v1.855
		c0.828-0.756,1.623-1.319,2.384-1.687s1.505-0.552,2.231-0.552c0.736,0,1.431,0.164,2.086,0.491
		c0.654,0.327,1.191,0.782,1.61,1.365c0.368,0.501,0.629,1.102,0.782,1.802c0.153,0.7,0.23,1.817,0.23,3.351v3.051
		c0,0.859,0.064,1.436,0.191,1.733c0.128,0.297,0.361,0.547,0.698,0.751c0.123,0.072,0.258,0.125,0.406,0.161
		c0.148,0.036,0.324,0.054,0.529,0.054c0.245,0,0.416,0.036,0.514,0.107c0.097,0.072,0.145,0.194,0.145,0.368
		c0,0.112-0.043,0.202-0.13,0.268c-0.087,0.066-0.202,0.1-0.345,0.1c-0.061,0-0.404-0.026-1.027-0.077
		c-0.624-0.051-1.212-0.077-1.763-0.077c-0.808,0-1.575,0.046-2.3,0.138c-0.102,0.01-0.164,0.015-0.184,0.015
		c-0.092,0-0.174-0.033-0.245-0.1c-0.072-0.066-0.107-0.146-0.107-0.238c0-0.163,0.138-0.34,0.414-0.529
		c0.276-0.189,0.465-0.35,0.567-0.483c0.163-0.204,0.278-0.457,0.345-0.759c0.066-0.301,0.1-0.79,0.1-1.464v-3.527
		c0-1.902-0.269-3.23-0.805-3.987c-0.536-0.757-1.433-1.135-2.691-1.135c-1.145,0-2.037,0.281-2.676,0.843
		c-0.639,0.562-0.958,1.349-0.958,2.362v5.474c0,0.838,0.071,1.416,0.215,1.733s0.414,0.577,0.813,0.782
		c0.112,0.061,0.246,0.107,0.399,0.138c0.153,0.031,0.327,0.046,0.521,0.046c0.317,0.02,0.521,0.066,0.613,0.138
		c0.092,0.072,0.138,0.184,0.138,0.338c0,0.112-0.046,0.202-0.138,0.268s-0.215,0.1-0.368,0.1c-0.072,0-0.437-0.026-1.097-0.077
		c-0.659-0.051-1.28-0.077-1.863-0.077c-0.828,0-1.631,0.046-2.407,0.138c-0.123,0.01-0.199,0.015-0.23,0.015
		c-0.102,0-0.194-0.033-0.276-0.1c-0.082-0.066-0.123-0.146-0.123-0.238c0-0.102,0.031-0.192,0.092-0.269
		c0.061-0.077,0.174-0.156,0.337-0.238c0.031-0.02,0.082-0.051,0.153-0.092c0.225-0.163,0.383-0.302,0.475-0.414
		c0.204-0.246,0.345-0.516,0.422-0.813C203.221-19.345,203.259-19.816,203.259-20.46z"/>
	<path fill="#8B5E3C" d="M220.448-16.887c-0.358-0.174-0.637-0.437-0.836-0.79c-0.199-0.353-0.299-0.749-0.299-1.189
		c0-0.48,0.143-0.979,0.429-1.495c0.286-0.516,0.695-1.02,1.227-1.511c-0.634-0.419-1.117-0.961-1.449-1.625
		c-0.332-0.665-0.498-1.431-0.498-2.3c0-1.39,0.485-2.556,1.457-3.496c0.971-0.94,2.162-1.41,3.573-1.41
		c0.971,0,1.906,0.21,2.806,0.629c0.899,0.419,1.41,0.629,1.533,0.629c0.276,0,0.549-0.084,0.821-0.253
		c0.27-0.168,0.488-0.386,0.651-0.652c0.061-0.112,0.11-0.217,0.146-0.314c0.035-0.097,0.059-0.192,0.069-0.284l0.015-0.031
		c0.061-0.255,0.174-0.383,0.338-0.383c0.123,0,0.22,0.056,0.291,0.169c0.071,0.112,0.107,0.266,0.107,0.46
		c0,0.767-0.143,1.395-0.429,1.886c-0.286,0.491-0.736,0.879-1.35,1.166c0.113,0.245,0.197,0.496,0.254,0.751
		c0.056,0.256,0.084,0.527,0.084,0.813c0,1.483-0.496,2.671-1.487,3.565c-0.992,0.895-2.316,1.342-3.972,1.342
		c-0.399,0-0.818-0.038-1.257-0.115c-0.44-0.077-0.68-0.115-0.721-0.115c-0.338,0-0.652,0.176-0.943,0.529
		c-0.292,0.353-0.437,0.744-0.437,1.173c0,0.583,0.312,0.984,0.935,1.204c0.624,0.22,2.279,0.33,4.968,0.33
		c1.36,0,2.329,0.22,2.906,0.659c0.578,0.44,0.867,1.171,0.867,2.193c0,1.4-0.59,2.494-1.771,3.282
		c-1.18,0.787-2.824,1.181-4.93,1.181c-1.635,0-2.939-0.289-3.91-0.866c-0.971-0.577-1.457-1.347-1.457-2.308
		c0-0.603,0.181-1.133,0.544-1.587C219.086-16.108,219.661-16.519,220.448-16.887z M221.169-16.504
		c-0.49,0.184-0.848,0.465-1.073,0.843c-0.225,0.378-0.337,0.879-0.337,1.503c0,0.828,0.317,1.449,0.95,1.863
		c0.634,0.414,1.59,0.621,2.867,0.621c1.615,0,2.883-0.266,3.803-0.797c0.92-0.532,1.38-1.257,1.38-2.177
		c0-0.501-0.133-0.859-0.399-1.074c-0.266-0.215-0.762-0.343-1.487-0.383c-0.338-0.01-0.854-0.026-1.549-0.046
		C223.474-16.192,222.089-16.309,221.169-16.504z M221.139-26.394c0,1.431,0.268,2.525,0.805,3.282
		c0.537,0.757,1.311,1.135,2.323,1.135c0.981,0,1.73-0.307,2.246-0.92c0.516-0.613,0.774-1.498,0.774-2.653
		c0-1.37-0.281-2.456-0.843-3.259c-0.562-0.802-1.318-1.204-2.269-1.204c-0.941,0-1.682,0.322-2.223,0.966
		C221.409-28.403,221.139-27.519,221.139-26.394z"/>
</g>
<g>
	<path fill="#C49A6C" d="M89.329-76.511H62.37c-2.059,0-3.727,1.668-3.727,3.727c0,2.059,1.668,3.727,3.727,3.727h26.959
		c2.059,0,3.727-1.668,3.727-3.727C93.056-74.843,91.388-76.511,89.329-76.511L89.329-76.511z M89.329-76.511"/>
	<path fill="#C49A6C" d="M89.329-49.841H71.316c-2.059,0-3.727,1.668-3.727,3.727c0,2.059,1.668,3.727,3.727,3.727h18.013
		c2.059,0,3.727-1.668,3.727-3.727C93.056-48.173,91.388-49.841,89.329-49.841L89.329-49.841z M89.329-49.841"/>
	<path fill="#C49A6C" d="M89.329-63.176H55.801c-2.059,0-3.727,1.668-3.727,3.727c0,2.059,1.668,3.727,3.727,3.727h33.528
		c2.059,0,3.727-1.668,3.727-3.727C93.056-61.508,91.388-63.176,89.329-63.176L89.329-63.176z M89.329-63.176"/>
	<path fill="#C49A6C" d="M89.329-36.497H55.801c-2.059,0-3.727,1.668-3.727,3.727s1.668,3.727,3.727,3.727h33.528
		c2.059,0,3.727-1.668,3.727-3.727S91.388-36.497,89.329-36.497L89.329-36.497z M89.329-36.497"/>
	<path fill="#C49A6C" d="M89.329-23.162H55.801c-2.059,0-3.727,1.668-3.727,3.727c0,2.059,1.668,3.727,3.727,3.727h33.528
		c2.059,0,3.727-1.668,3.727-3.727C93.056-21.494,91.388-23.162,89.329-23.162L89.329-23.162z M89.329-23.162"/>
</g>
<g>
	<g>
		<g>
			<path fill="#8B5E3C" d="M65.408,30.516c0,3.156-0.355,5.213-2.057,6.88c-0.745,0.709-2.057,1.631-4.54,1.631
				c-0.497,0-0.78-0.071-1.135-0.106l-0.638-3.227c4.007,0.071,4.894-0.638,4.894-5.568V6.648h3.476V30.516z"/>
			<path fill="#8B5E3C" d="M85.694,22.927c0,5.674-4.61,8.228-8.547,8.228c-5.107,0-8.476-3.759-8.476-8.299
				c0-4.469,3.263-8.263,8.583-8.263C82.006,14.592,85.694,17.891,85.694,22.927z M71.898,22.891c0,4.008,2.979,5.426,5.32,5.426
				c3.121,0,5.249-2.234,5.249-5.462c0-4.007-3.121-5.426-5.391-5.426C74.239,17.43,71.898,19.38,71.898,22.891z"/>
			<path fill="#8B5E3C" d="M92.183,14.912v2.092c1.844-1.844,3.121-2.412,4.752-2.412c1.915,0,3.653,1.028,4.681,2.873
				c2.057-2.057,3.369-2.873,5.249-2.873c3.44,0,5.32,2.27,5.32,6.313v9.93h-3.121v-9.718c0-2.518-1.241-3.83-3.298-3.83
				c-1.206,0-2.624,0.816-3.582,1.986v11.562h-3.121v-9.54c0-2.128-0.497-4.043-3.156-4.043c-1.49,0-2.66,0.78-3.724,2.022v11.562
				h-3.121V14.912H92.183z"/>
			<path fill="#8B5E3C" d="M129.031,29.913c-1.454,0.958-2.057,1.241-3.05,1.241c-1.383,0-2.128-0.497-2.412-1.631
				c-1.383,1.099-2.837,1.631-4.291,1.631c-2.341,0-3.901-1.844-3.901-3.901c0-3.157,2.873-4.114,5.426-5.036l2.802-0.993v-0.851
				c0-1.986-0.958-2.802-2.873-2.802c-1.738,0-3.511,0.816-5.036,2.624v-3.44c1.241-1.454,2.979-2.163,5.284-2.163
				c3.227,0,5.781,1.631,5.781,5.249v8.193c0,0.603,0.213,0.816,0.603,0.816c0.319,0,0.958-0.319,1.667-0.851V29.913z
				 M123.605,22.962c-2.695,0.922-5.036,1.844-5.036,3.724c0,1.312,0.957,2.234,2.27,2.234c0.993,0,1.915-0.497,2.766-1.312V22.962z
				"/>
			<path fill="#8B5E3C" d="M134.705,14.912v3.653c1.028-1.596,2.518-3.972,4.752-3.972c0.461,0,1.88,0.035,3.724,1.809l-1.667,2.766
				c-0.39-0.39-1.809-1.56-3.05-1.56c-1.17,0-3.759,1.277-3.759,4.894v8.334h-3.157V14.912H134.705z"/>
			<path fill="#8B5E3C" d="M158.288,30.835h-6.738c-6.242,0-7.732-5.142-7.732-8.228c0-5.178,3.83-8.015,7.838-8.015
				c1.596,0,2.802,0.39,3.44,0.638V6.648h3.192V30.835z M155.096,18.032c-0.603-0.319-1.454-0.745-2.944-0.745
				c-2.66,0-5.142,1.702-5.142,5.71c0,2.695,1.135,4.078,2.341,4.681c0.851,0.426,1.667,0.497,3.334,0.497h2.412V18.032z"/>
		</g>
		<g>
			<path fill="#8B5E3C" d="M63.28,42.879c2.873,0,5.107,0,7.129,2.057c1.064,1.064,1.879,2.589,1.879,4.788
				c0,1.206-0.213,3.157-2.022,4.894c-1.525,1.454-3.44,1.951-7.2,1.951h-2.553v10.498h-3.475V42.879H63.28z M60.513,45.929v7.554
				h2.766c1.383,0,2.802,0,3.831-0.638c0.957-0.567,1.596-1.667,1.596-3.192c0-0.851-0.213-1.915-1.064-2.695
				c-1.064-1.029-2.022-1.029-4.504-1.029H60.513z"/>
			<path fill="#8B5E3C" d="M84.984,67.067v-2.022c-1.454,1.596-3.334,2.341-4.823,2.341c-0.993,0-3.192-0.354-4.504-2.553
				c-0.497-0.78-0.887-1.702-0.887-4.61v-9.079h3.192v9.079c0,1.809,0,4.54,3.227,4.54c1.489,0,2.837-0.887,3.794-2.234V51.143
				h3.192v15.924H84.984z"/>
			<path fill="#8B5E3C" d="M95.623,52.278c0.532-0.39,2.022-1.454,4.398-1.454c4.256,0,6.845,3.653,6.845,8.122
				c0,5.603-3.866,8.476-8.228,8.476c-2.022,0-4.646-0.497-6.171-1.241V42.879h3.157V52.278z M95.623,63.91
				c1.277,0.39,2.802,0.497,3.334,0.497c1.879,0,4.717-1.348,4.717-5.32c0-3.582-2.199-5.355-4.469-5.355
				c-1.773,0-2.944,0.993-3.582,1.561V63.91z"/>
			<path fill="#8B5E3C" d="M113.568,67.067h-3.157V42.879h3.157V67.067z"/>
			<path fill="#8B5E3C" d="M121.618,46.284c0,0.993-0.851,1.88-1.88,1.88c-1.206,0-1.844-1.099-1.844-1.88
				c0-0.887,0.78-1.844,1.844-1.844C120.803,44.44,121.618,45.291,121.618,46.284z M121.334,67.067h-3.157V51.143h3.157V67.067z"/>
			<path fill="#8B5E3C" d="M135.094,55.256c-1.773-1.099-3.121-1.702-4.61-1.702s-2.022,0.816-2.022,1.419
				c0,1.028,1.099,1.596,3.44,2.908c2.27,1.241,3.972,2.873,3.972,5c0,1.49-1.135,4.504-5.462,4.504
				c-2.234,0-3.724-0.674-5.32-1.454v-3.405c2.27,1.56,4.22,2.092,5.072,2.092c0.993,0,2.411-0.567,2.411-1.631
				c0-1.135-0.957-1.667-2.447-2.483c-2.625-1.454-4.93-2.873-4.93-5.533c0-2.341,2.022-4.149,5.072-4.149
				c2.376,0,4.078,0.922,4.823,1.312V55.256z"/>
			<path fill="#8B5E3C" d="M142.612,53.235c1.241-1.49,3.015-2.412,4.894-2.412c2.376,0,4.079,1.419,4.752,3.015
				c0.426,1.064,0.603,2.589,0.603,4.149v9.079h-3.157v-9.859c0-1.277-0.319-2.022-0.567-2.447c-0.567-0.922-1.56-1.454-2.518-1.454
				c-1.525,0-2.624,0.78-4.008,2.341v11.42h-3.156V42.879h3.156V53.235z"/>
			<path fill="#8B5E3C" d="M160.77,46.284c0,0.993-0.851,1.88-1.88,1.88c-1.206,0-1.844-1.099-1.844-1.88
				c0-0.887,0.78-1.844,1.844-1.844C159.955,44.44,160.77,45.291,160.77,46.284z M160.487,67.067h-3.157V51.143h3.157V67.067z"/>
			<path fill="#8B5E3C" d="M168.182,51.143v2.022c1.419-1.596,3.298-2.341,4.788-2.341c0.993,0,3.192,0.355,4.504,2.553
				c0.497,0.78,0.887,1.702,0.887,4.611v9.079h-3.192v-9.079c0-1.702,0-2.589-0.851-3.547c-0.603-0.674-1.312-0.993-2.376-0.993
				c-1.454,0-2.802,0.851-3.759,2.234v11.384h-3.227V51.143H168.182z"/>
			<path fill="#8B5E3C" d="M195.454,53.59h-3.263c1.241,1.241,1.667,2.128,1.667,3.476c0,1.313-0.745,2.838-1.49,3.582
				c-2.128,2.27-6.455,1.135-6.455,3.014c0,0.887,1.667,1.419,4.859,2.057c3.404,0.674,4.61,2.411,4.61,4.433
				c0,3.157-2.802,5.072-7.519,5.072c-4.291,0-7.341-2.022-7.341-4.823c0-2.341,1.241-3.724,4.008-4.398
				c-1.099-0.674-1.596-1.312-1.596-2.022c0-1.028,0.993-1.915,2.518-2.27V61.64c-1.171-0.496-2.057-1.17-2.66-2.022
				c-0.567-0.816-0.851-1.809-0.851-2.979c0-3.405,2.66-5.497,6.951-5.497h6.561V53.59z M187.12,67.847
				c-2.128,0-3.617,0.993-3.617,2.412c0,1.596,1.56,2.447,4.433,2.447c2.766,0,4.398-0.851,4.398-2.305
				C192.334,68.379,189.071,67.847,187.12,67.847z M187.936,53.873c-1.738,0-3.156,1.312-3.156,2.873
				c0,1.738,1.277,2.908,3.192,2.908c1.773,0,3.05-1.241,3.05-2.979C191.022,55.15,189.603,53.873,187.936,53.873z"/>
		</g>
	</g>
	<g>
		<path fill="#C49A6C" d="M42.18,6.367H14.947c-2.08,0-3.765,1.685-3.765,3.765c0,2.08,1.685,3.765,3.765,3.765H42.18
			c2.08,0,3.765-1.685,3.765-3.765C45.945,8.052,44.26,6.367,42.18,6.367L42.18,6.367z M42.18,6.367"/>
		<path fill="#C49A6C" d="M42.18,33.308H23.984c-2.08,0-3.765,1.685-3.765,3.765c0,2.08,1.685,3.765,3.765,3.765H42.18
			c2.08,0,3.765-1.685,3.765-3.765C45.945,34.993,44.26,33.308,42.18,33.308L42.18,33.308z M42.18,33.308"/>
		<path fill="#C49A6C" d="M42.18,19.838H8.311c-2.08,0-3.765,1.685-3.765,3.765c0,2.08,1.685,3.765,3.765,3.765H42.18
			c2.08,0,3.765-1.685,3.765-3.765C45.945,21.523,44.26,19.838,42.18,19.838L42.18,19.838z M42.18,19.838"/>
		<path fill="#C49A6C" d="M42.18,46.788H8.311c-2.08,0-3.765,1.685-3.765,3.765c0,2.08,1.685,3.765,3.765,3.765H42.18
			c2.08,0,3.765-1.685,3.765-3.765C45.945,48.473,44.26,46.788,42.18,46.788L42.18,46.788z M42.18,46.788"/>
		<path fill="#C49A6C" d="M42.18,60.258H8.311c-2.08,0-3.765,1.685-3.765,3.765c0,2.08,1.685,3.765,3.765,3.765H42.18
			c2.08,0,3.765-1.685,3.765-3.765C45.945,61.943,44.26,60.258,42.18,60.258L42.18,60.258z M42.18,60.258"/>
	</g>
</g>
</svg>
