<svg xmlns="http://www.w3.org/2000/svg" shape-rendering="geometricPrecision" text-rendering="geometricPrecision" image-rendering="optimizeQuality" fill-rule="evenodd" clip-rule="evenodd" viewBox="0 0 512 356.79"><path fill="#002B7F" fill-rule="nonzero" d="M31.65 1h448.7C497.21 1 511 14.79 511 31.65v293.49c0 16.86-13.79 30.65-30.65 30.65H31.65C14.79 355.79 1 342 1 325.14V31.65C1 14.79 14.79 1 31.65 1z"/><path fill="#FFD83D" fill-rule="nonzero" d="M115.18 72.83l-1.1 37.39H76.14c-4.67-9.07-8.52-16.78-8.52-27.22 0-8.73 6.87-15.67 16.77-15.67 10.48 0 21.99 3.54 30.79 5.5zM72.15 74.55v21.58-21.58zm0 0z"/><path fill-rule="nonzero" d="M71.7 74.55c0-.25.21-.45.45-.45.25 0 .45.2.45.45v21.58c0 .25-.2.45-.45.45-.24 0-.45-.2-.45-.45V74.55z"/><path fill="#FFD83D" fill-rule="nonzero" d="M75.2 72.35v28.73-28.73zm0 0z"/><path fill-rule="nonzero" d="M74.75 72.35c0-.25.2-.45.45-.45s.45.2.45.45v28.73c0 .25-.2.45-.45.45s-.45-.2-.45-.45V72.35z"/><path fill="#FFD83D" fill-rule="nonzero" d="M78.25 70.84v34.23-34.23zm0 0z"/><path fill-rule="nonzero" d="M77.8 70.84c0-.25.2-.45.45-.45.24 0 .45.2.45.45v34.23c0 .25-.21.45-.45.45-.25 0-.45-.2-.45-.45V70.84z"/><path fill="#FFD83D" fill-rule="nonzero" d="M81.29 70.13v26.85-26.85zm0 0z"/><path fill-rule="nonzero" d="M80.85 70.13c0-.25.2-.45.44-.45.25 0 .45.2.45.45v26.85c0 .25-.2.45-.45.45-.24 0-.44-.2-.44-.45V70.13z"/><path fill="#FFD83D" fill-rule="nonzero" d="M84.34 70v27.11V70zm0 0z"/><path fill-rule="nonzero" d="M83.89 70c0-.25.2-.45.45-.45s.45.2.45.45v27.11c0 .25-.2.45-.45.45s-.45-.2-.45-.45V70z"/><path fill="#FFD83D" fill-rule="nonzero" d="M87.39 69.05V97.1 69.05zm0 0z"/><path fill-rule="nonzero" d="M86.94 69.05c0-.25.2-.45.45-.45s.45.2.45.45v28.04c0 .25-.2.45-.45.45s-.45-.2-.45-.45V69.05z"/><path fill="#FFD83D" fill-rule="nonzero" d="M90.43 69.05V97.1 69.05zm0 0z"/><path fill-rule="nonzero" d="M89.99 69.05c0-.25.2-.45.44-.45.25 0 .45.2.45.45v28.04c0 .25-.2.45-.45.45-.24 0-.44-.2-.44-.45V69.05z"/><path fill="#FFD83D" fill-rule="nonzero" d="M93.48 69.32v28.05-28.05zm0 0z"/><path fill-rule="nonzero" d="M93.03 69.32c0-.24.2-.44.45-.44s.45.2.45.44v28.05c0 .25-.2.45-.45.45s-.45-.2-.45-.45V69.32z"/><path fill="#FFD83D" fill-rule="nonzero" d="M96.53 69.6v28.05V69.6zm0 0z"/><path fill-rule="nonzero" d="M96.08 69.6c0-.25.2-.45.45-.45s.45.2.45.45v28.05c0 .24-.2.45-.45.45s-.45-.21-.45-.45V69.6z"/><path fill="#FFD83D" fill-rule="nonzero" d="M99.58 71.39v28.04-28.04zm0 0z"/><path fill-rule="nonzero" d="M99.13 71.39c0-.25.2-.45.45-.45.24 0 .44.2.44.45v28.04c0 .25-.2.45-.44.45-.25 0-.45-.2-.45-.45V71.39z"/><path fill="#FFD83D" fill-rule="nonzero" d="M102.62 71.66v31.62-31.62zm0 0z"/><path fill-rule="nonzero" d="M102.17 71.66c0-.25.2-.45.45-.45s.45.2.45.45v31.62c0 .25-.2.45-.45.45s-.45-.2-.45-.45V71.66z"/><path fill="#FFD83D" fill-rule="nonzero" d="M105.67 71.66v28.05-28.05zm0 0z"/><path fill-rule="nonzero" d="M105.22 71.66c0-.25.2-.45.45-.45s.45.2.45.45v28.05c0 .25-.2.45-.45.45s-.45-.2-.45-.45V71.66z"/><path fill="#FFD83D" fill-rule="nonzero" d="M108.72 71.66v28.05-28.05zm0 0z"/><path fill-rule="nonzero" d="M108.27 71.66c0-.25.2-.45.45-.45.24 0 .44.2.44.45v28.05c0 .25-.2.45-.44.45-.25 0-.45-.2-.45-.45V71.66z"/><path fill-rule="nonzero" d="M91.26 70.22c6.44 1.06 20.58 7.68 18.97 16.63-2.29 12.69-9.7 7.6-19.52 5.78l-7.42 2.47c-2.66 2.71-6.57 5.19-9.21 1.92h-4.4v17.19h48.66V72.7l-27.08-2.48z"/><path fill-rule="nonzero" d="M91.42 70.7l-.24-.04a.45.45 0 01-.37-.48c.03-.24.24-.43.49-.4l27.04 2.47c.24 0 .44.2.44.45v41.5c0 .25-.2.45-.44.45H69.68c-.25 0-.45-.2-.45-.45V97.02c0-.24.2-.44.45-.44h4.4c.13 0 .26.05.35.16.12.15.24.29.37.41.94.92 2.03 1.13 3.14.89 1.18-.24 2.4-.97 3.51-1.87.54-.43 1.05-.9 1.52-1.38.05-.05.11-.09.18-.11l7.4-2.47c.07-.03.15-.04.24-.02 1.9.35 3.7.82 5.4 1.26 1.53.41 2.98.79 4.31 1.02 4.59.83 7.9-.04 9.28-7.67l.03-.14c.68-4.19-2.29-7.87-6.21-10.65-3.99-2.83-8.95-4.72-12.16-5.3l-.02-.01zm4.68.41c2.62.97 5.5 2.39 8.01 4.17 4.18 2.96 7.34 6.93 6.58 11.52l-.03.16c-1.52 8.37-5.2 9.32-10.32 8.39-1.37-.24-2.83-.62-4.38-1.03-1.64-.43-3.39-.89-5.22-1.23l-7.21 2.4c-.47.48-.98.95-1.52 1.38-1.21.98-2.55 1.77-3.89 2.05-1.39.29-2.76.03-3.95-1.13-.1-.1-.2-.2-.3-.32h-3.74v16.29h47.76V73.1L96.1 71.11z"/><circle fill="#FFD83D" fill-rule="nonzero" cx="113.04" cy="67.27" r="2.96"/><path fill-rule="nonzero" d="M115.4 67.27c0-.65-.26-1.24-.69-1.67a2.31 2.31 0 00-1.66-.69c-.66 0-1.25.26-1.67.69-.43.42-.69 1.01-.69 1.67 0 .65.26 1.24.69 1.66.42.43 1.01.69 1.67.69a2.342 2.342 0 002.35-2.35zm.16-2.52c.64.65 1.04 1.54 1.04 2.52s-.4 1.86-1.04 2.51a3.58 3.58 0 01-2.51 1.04c-.99 0-1.87-.4-2.52-1.04a3.545 3.545 0 01-1.04-2.51c0-.98.4-1.87 1.04-2.52.65-.64 1.54-1.04 2.52-1.04s1.87.4 2.51 1.04z"/><circle fill="#FFD83D" fill-rule="nonzero" cx="106.4" cy="65.67" r="2.96"/><path fill-rule="nonzero" d="M108.76 65.67c0-.65-.26-1.24-.69-1.67l-.03-.03c-.42-.41-1-.66-1.64-.66-.65 0-1.24.27-1.66.69a2.35 2.35 0 00-.69 1.67 2.342 2.342 0 002.35 2.35c.66 0 1.25-.26 1.67-.68v-.01c.43-.42.69-1.01.69-1.66zm.16-2.51a3.545 3.545 0 010 5.02c-.65.64-1.54 1.04-2.52 1.04s-1.86-.4-2.51-1.04a3.545 3.545 0 010-5.02c.64-.65 1.53-1.05 2.51-1.05.96 0 1.84.39 2.48 1.01l.04.04z"/><circle fill="#FFD83D" fill-rule="nonzero" cx="99.67" cy="63.98" r="2.96"/><path fill-rule="nonzero" d="M102.02 63.98c0-.65-.26-1.24-.69-1.67a2.31 2.31 0 00-1.66-.69c-.66 0-1.25.26-1.67.69-.43.42-.69 1.01-.69 1.67 0 .65.26 1.24.69 1.66l.03.03c.42.41 1 .66 1.64.66.65 0 1.24-.26 1.66-.69.43-.42.69-1.01.69-1.66zm.16-2.52c.64.65 1.04 1.54 1.04 2.52s-.4 1.86-1.04 2.51c-.65.64-1.53 1.04-2.51 1.04-.97 0-1.84-.39-2.48-1.01l-.04-.03a3.545 3.545 0 010-5.02 3.553 3.553 0 015.03-.01z"/><circle fill="#FFD83D" fill-rule="nonzero" cx="92.9" cy="62.85" r="2.96"/><path fill-rule="nonzero" d="M95.26 62.85c0-.65-.26-1.24-.69-1.67a2.35 2.35 0 00-1.67-.69c-.65 0-1.24.26-1.66.69a2.35 2.35 0 00-.69 1.67c0 .65.26 1.24.69 1.67a2.35 2.35 0 003.33 0v-.01c.43-.42.69-1.01.69-1.66zm.16-2.51a3.545 3.545 0 010 5.02c-.65.64-1.54 1.04-2.52 1.04s-1.87-.4-2.51-1.04a3.545 3.545 0 01-1.04-2.51c0-.98.4-1.87 1.04-2.52a3.545 3.545 0 015.03.01z"/><circle fill="#FFD83D" fill-rule="nonzero" cx="86.14" cy="62.18" r="2.96"/><path fill-rule="nonzero" d="M88.5 62.18c0-.65-.27-1.24-.69-1.67-.43-.42-1.02-.69-1.67-.69-.65 0-1.24.27-1.67.69-.42.43-.69 1.02-.69 1.67 0 .65.27 1.24.69 1.67l.03.03c.42.4 1 .66 1.64.66.65 0 1.24-.27 1.67-.69.42-.43.69-1.02.69-1.67zm.15-2.51a3.545 3.545 0 010 5.02c-.64.65-1.53 1.04-2.51 1.04-.96 0-1.84-.38-2.48-1l-.03-.04a3.504 3.504 0 01-1.04-2.51c0-.98.39-1.87 1.04-2.51a3.545 3.545 0 015.02 0z"/><circle fill="#FFD83D" fill-rule="nonzero" cx="79.51" cy="62.56" r="2.96"/><path fill-rule="nonzero" d="M81.86 62.56c0-.65-.26-1.24-.68-1.67-.43-.42-1.02-.69-1.67-.69-.65 0-1.24.27-1.67.69l-.03.03c-.41.42-.66 1-.66 1.64 0 .65.27 1.24.69 1.67.43.42 1.01.69 1.67.69.65 0 1.24-.27 1.66-.7.43-.42.69-1.01.69-1.66zm.16-2.51a3.545 3.545 0 010 5.02c-.64.64-1.53 1.04-2.51 1.04-.98 0-1.87-.4-2.52-1.04a3.545 3.545 0 01-1.04-2.51c0-.96.39-1.84 1.01-2.48l.03-.03c.65-.65 1.54-1.04 2.52-1.04s1.86.39 2.51 1.04z"/><circle fill="#FFD83D" fill-rule="nonzero" cx="73.18" cy="64.72" r="2.96"/><path fill-rule="nonzero" d="M75.54 64.72c0-.65-.26-1.24-.69-1.66-.43-.43-1.01-.69-1.67-.69-.65 0-1.24.26-1.66.69l-.03.02c-.41.43-.66 1.01-.66 1.64 0 .66.26 1.25.69 1.67.42.43 1.01.69 1.66.69.66 0 1.24-.26 1.67-.69.43-.43.69-1.02.69-1.67zm.16-2.51a3.58 3.58 0 011.04 2.51c0 .98-.4 1.87-1.04 2.52a3.547 3.547 0 01-5.03-.01 3.545 3.545 0 01-1.04-2.51c0-.96.39-1.83 1.01-2.47l.03-.04c.64-.64 1.53-1.04 2.51-1.04.99 0 1.87.4 2.52 1.04z"/><circle fill="#FFD83D" fill-rule="nonzero" cx="67.86" cy="68.64" r="2.96"/><path fill-rule="nonzero" d="M70.22 68.64c0-.65-.27-1.24-.69-1.67l-.03-.02c-.43-.41-1-.67-1.64-.67-.65 0-1.24.27-1.67.69l-.03.03c-.41.42-.66 1-.66 1.64 0 .65.27 1.24.69 1.67.43.42 1.02.69 1.67.69.65 0 1.24-.27 1.67-.69.42-.43.69-1.02.69-1.67zm.15-2.51a3.545 3.545 0 010 5.02c-.64.65-1.53 1.04-2.51 1.04-.98 0-1.87-.39-2.51-1.04a3.504 3.504 0 01-1.04-2.51c0-.96.38-1.83 1-2.47l.04-.04c.64-.64 1.53-1.04 2.51-1.04.96 0 1.83.38 2.47 1l.04.04z"/><circle fill="#FFD83D" fill-rule="nonzero" cx="64.08" cy="74.1" r="2.96"/><path fill-rule="nonzero" d="M66.44 74.1c0-.65-.27-1.24-.69-1.66a2.35 2.35 0 00-1.67-.69c-.65 0-1.24.26-1.67.68-.42.43-.69 1.02-.69 1.67 0 .66.27 1.25.69 1.67.43.43 1.02.69 1.67.69.65 0 1.24-.26 1.67-.69l.03-.03c.4-.42.66-1 .66-1.64zm.15-2.51a3.56 3.56 0 01.04 4.99l-.04.04a3.545 3.545 0 01-5.02 0 3.544 3.544 0 01-1.04-2.52c0-.97.39-1.86 1.04-2.51a3.545 3.545 0 015.02 0z"/><circle fill="#FFD83D" fill-rule="nonzero" cx="62.26" cy="80.53" r="2.96"/><path fill-rule="nonzero" d="M64.61 80.53c0-.65-.26-1.24-.68-1.67-.43-.42-1.02-.69-1.67-.69-.65 0-1.24.27-1.67.69l-.03.03c-.41.42-.66 1-.66 1.64 0 .65.27 1.24.69 1.67a2.35 2.35 0 003.33 0c.43-.43.69-1.02.69-1.67zm.16-2.51a3.545 3.545 0 010 5.02c-.64.65-1.53 1.04-2.51 1.04-.98 0-1.87-.4-2.52-1.04a3.545 3.545 0 01-1.04-2.51c0-.96.39-1.83 1.01-2.47l.04-.04a3.545 3.545 0 015.02 0z"/><circle fill="#FFD83D" fill-rule="nonzero" cx="62.33" cy="87.2" r="2.96"/><path fill-rule="nonzero" d="M64.68 87.2c0-.65-.26-1.24-.69-1.67l-.02-.03c-.43-.41-1.01-.66-1.64-.66-.65 0-1.24.26-1.67.69a2.35 2.35 0 00-.69 1.67c0 .65.26 1.24.69 1.66l.03.03c.42.41 1 .66 1.64.66.65 0 1.24-.26 1.66-.69.43-.42.69-1.01.69-1.66zm.16-2.52c.64.65 1.04 1.54 1.04 2.52s-.4 1.87-1.04 2.51c-.64.64-1.53 1.04-2.51 1.04-.96 0-1.84-.38-2.48-1.01l-.04-.03a3.545 3.545 0 01-1.04-2.51c0-.98.4-1.87 1.04-2.52.65-.64 1.54-1.04 2.52-1.04.96 0 1.83.39 2.47 1.01l.04.03z"/><circle fill="#FFD83D" fill-rule="nonzero" cx="63.6" cy="93.73" r="2.96"/><path fill-rule="nonzero" d="M65.96 93.73c0-.66-.27-1.25-.7-1.67a2.31 2.31 0 00-1.66-.69c-.65 0-1.24.26-1.67.69-.43.42-.69 1.01-.69 1.67 0 .65.26 1.24.69 1.66.43.43 1.02.69 1.67.69.65 0 1.24-.26 1.66-.69h.01c.42-.42.69-1.01.69-1.66zm.15-2.51a3.54 3.54 0 010 5.01v.01a3.545 3.545 0 01-5.02 0 3.536 3.536 0 010-5.03c.64-.64 1.53-1.04 2.51-1.04.98 0 1.87.4 2.51 1.05z"/><path fill="#FFD83D" fill-rule="nonzero" d="M114.35 71.18l-.27 3.85c-7.36-1.12-17.78-5.22-27.49-5.22-8.98 0-15.95 3.59-15.95 12.64 0 8.93 3.78 17.04 8.8 25.29l-5.22 2.48c-4.67-9.07-8.53-16.78-8.53-27.22 0-8.73 6.87-17.31 18.7-17.31 10.48 0 21.17 3.53 29.96 5.49z"/><path fill-rule="nonzero" d="M114.95 71.23l-.28 3.84c-.02.33-.31.58-.64.56l-.04-.01c-2.65-.4-5.69-1.19-8.95-2.03-5.79-1.5-12.28-3.18-18.45-3.18-4.63 0-8.69.97-11.47 3.17-2.42 1.92-3.88 4.82-3.88 8.87 0 4.39.93 8.58 2.48 12.69 1.55 4.14 3.74 8.2 6.23 12.29.17.29.08.65-.2.82l-.06.03-5.22 2.48c-.3.14-.65.01-.79-.28-2.34-4.56-4.48-8.77-6.04-13.16C66.07 92.89 65.1 88.3 65.1 83c0-4.77 1.98-9.5 5.65-12.9 3.28-3.03 7.89-5.01 13.64-5.01 8.05 0 16.2 2.06 23.53 3.91 2.3.58 4.52 1.15 6.56 1.6.29.07.49.34.47.63zm-1.42 3.11l.19-2.69c-1.99-.45-4-.96-6.09-1.49-7.26-1.83-15.33-3.88-23.24-3.88-5.42 0-9.76 1.85-12.83 4.69A16.451 16.451 0 0066.29 83c0 5.15.95 9.62 2.48 13.92 1.47 4.17 3.49 8.19 5.71 12.51l4.11-1.94c-2.39-3.96-4.47-7.9-5.99-11.93-1.6-4.24-2.55-8.57-2.55-13.11 0-4.46 1.62-7.66 4.33-9.81 3-2.38 7.32-3.43 12.21-3.43 6.31 0 12.89 1.7 18.75 3.22 2.96.77 5.73 1.49 8.19 1.91z"/><path fill="#FFD83D" fill-rule="nonzero" d="M121.86 72.83l1.1 37.39h37.94c4.67-9.07 8.52-16.78 8.52-27.22 0-8.73-6.87-15.67-16.77-15.67-10.48 0-21.99 3.54-30.79 5.5zM164.89 74.55v21.58-21.58zm0 0z"/><path fill-rule="nonzero" d="M164.29 74.55c0-.33.27-.6.6-.6.33 0 .6.27.6.6v21.58c0 .33-.27.6-.6.6-.33 0-.6-.27-.6-.6V74.55z"/><path fill="#FFD83D" fill-rule="nonzero" d="M161.84 72.35v28.73-28.73zm0 0z"/><path fill-rule="nonzero" d="M161.24 72.35c0-.33.27-.6.6-.6.33 0 .6.27.6.6v28.73c0 .33-.27.6-.6.6-.33 0-.6-.27-.6-.6V72.35z"/><path fill="#FFD83D" fill-rule="nonzero" d="M158.79 70.84v34.23-34.23zm0 0z"/><path fill-rule="nonzero" d="M158.19 70.84c0-.33.27-.6.6-.6.33 0 .6.27.6.6v34.23c0 .33-.27.6-.6.6-.33 0-.6-.27-.6-.6V70.84z"/><path fill="#FFD83D" fill-rule="nonzero" d="M155.75 70.13v26.85-26.85zm0 0z"/><path fill-rule="nonzero" d="M155.15 70.13c0-.33.27-.6.6-.6.33 0 .59.27.59.6v26.85c0 .33-.26.6-.59.6-.33 0-.6-.27-.6-.6V70.13z"/><path fill="#FFD83D" fill-rule="nonzero" d="M152.7 70v27.11V70zm0 0z"/><path fill-rule="nonzero" d="M152.1 70c0-.33.27-.6.6-.6.33 0 .6.27.6.6v27.11c0 .33-.27.6-.6.6-.33 0-.6-.27-.6-.6V70z"/><path fill="#FFD83D" fill-rule="nonzero" d="M149.65 69.05V97.1 69.05zm0 0z"/><path fill-rule="nonzero" d="M149.05 69.05c0-.33.27-.6.6-.6.33 0 .6.27.6.6v28.04c0 .34-.27.6-.6.6-.33 0-.6-.26-.6-.6V69.05z"/><path fill="#FFD83D" fill-rule="nonzero" d="M146.61 69.05V97.1 69.05zm0 0z"/><path fill-rule="nonzero" d="M146.01 69.05c0-.33.27-.6.6-.6.33 0 .59.27.59.6v28.04c0 .34-.26.6-.59.6-.33 0-.6-.26-.6-.6V69.05z"/><path fill="#FFD83D" fill-rule="nonzero" d="M143.56 69.32v28.05-28.05zm0 0z"/><path fill-rule="nonzero" d="M142.96 69.32a.6.6 0 011.2 0v28.05c0 .33-.27.6-.6.6-.33 0-.6-.27-.6-.6V69.32z"/><path fill="#FFD83D" fill-rule="nonzero" d="M140.51 69.6v28.05V69.6zm0 0z"/><path fill-rule="nonzero" d="M139.91 69.6c0-.33.27-.6.6-.6.33 0 .6.27.6.6v28.05c0 .33-.27.59-.6.59-.33 0-.6-.26-.6-.59V69.6z"/><path fill="#FFD83D" fill-rule="nonzero" d="M137.46 71.39v28.04-28.04zm0 0z"/><path fill-rule="nonzero" d="M136.87 71.39c0-.33.27-.6.6-.6.33 0 .59.27.59.6v28.04c0 .33-.26.6-.59.6-.33 0-.6-.27-.6-.6V71.39z"/><path fill="#FFD83D" fill-rule="nonzero" d="M134.42 71.66v31.62-31.62zm0 0z"/><path fill-rule="nonzero" d="M133.82 71.66c0-.33.27-.6.6-.6.33 0 .6.27.6.6v31.62c0 .33-.27.6-.6.6-.33 0-.6-.27-.6-.6V71.66z"/><path fill="#FFD83D" fill-rule="nonzero" d="M131.37 71.66v28.05-28.05zm0 0z"/><path fill-rule="nonzero" d="M130.77 71.66c0-.33.27-.6.6-.6.33 0 .6.27.6.6v28.05c0 .33-.27.6-.6.6-.33 0-.6-.27-.6-.6V71.66z"/><path fill="#FFD83D" fill-rule="nonzero" d="M128.32 71.66v28.05-28.05zm0 0z"/><path fill-rule="nonzero" d="M127.73 71.66a.595.595 0 111.19 0v28.05a.595.595 0 11-1.19 0V71.66z"/><path fill-rule="nonzero" d="M145.78 70.22c-6.44 1.06-20.58 7.68-18.97 16.63 2.29 12.69 9.7 7.6 19.52 5.78l7.42 2.47c2.66 2.71 6.57 5.19 9.21 1.92h4.4v17.19H118.7V72.7l27.08-2.48z"/><path fill-rule="nonzero" d="M145.88 70.81l-.27.05c-3.19.58-8.12 2.46-12.08 5.27-3.89 2.75-6.83 6.39-6.15 10.5l.03.16c1.36 7.49 4.6 8.35 9.11 7.54 1.31-.24 2.76-.62 4.3-1.02 1.69-.44 3.5-.92 5.4-1.27.12-.02.23-.01.33.03l7.39 2.46c.09.03.17.09.24.15.46.48.97.94 1.5 1.37 1.1.89 2.3 1.6 3.45 1.85 1.07.22 2.11.03 3.01-.85.12-.12.24-.26.36-.4.11-.15.29-.22.46-.22h4.4c.33 0 .6.26.6.59v17.18c0 .33-.27.6-.6.6H118.7c-.33 0-.6-.27-.6-.6V72.7c0-.33.27-.6.6-.6l27.03-2.47c.32-.03.61.21.64.54.03.31-.19.59-.49.64zm-13.04 4.35c2.21-1.57 4.71-2.85 7.06-3.8l-20.6 1.88v40.37h47.46V97.62h-3.52c-.09.1-.18.19-.27.28-1.22 1.2-2.64 1.47-4.08 1.16-1.37-.28-2.73-1.08-3.96-2.08-.53-.43-1.03-.89-1.5-1.36l-7.14-2.38c-1.81.34-3.54.8-5.17 1.22-1.56.41-3.02.79-4.39 1.04-5.21.94-8.95-.02-10.5-8.5 0-.04-.03-.13-.03-.17-.77-4.67 2.42-8.68 6.64-11.67z"/><circle fill="#FFD83D" fill-rule="nonzero" cx="124" cy="67.27" r="2.96"/><path fill-rule="nonzero" d="M120.44 67.27c0-.99.4-1.87 1.04-2.52.64-.64 1.53-1.04 2.51-1.04.98 0 1.87.4 2.52 1.04.64.65 1.04 1.54 1.04 2.52s-.4 1.87-1.04 2.51a3.55 3.55 0 01-2.52 1.04c-.97 0-1.86-.4-2.51-1.04a3.563 3.563 0 01-1.04-2.51zm1.89-1.67a2.35 2.35 0 00-.69 1.67 2.342 2.342 0 002.35 2.35c.66 0 1.25-.26 1.67-.69.43-.42.69-1.01.69-1.66 0-.66-.26-1.25-.69-1.67-.42-.43-1.01-.69-1.67-.69-.65 0-1.24.26-1.66.69z"/><circle fill="#FFD83D" fill-rule="nonzero" cx="130.64" cy="65.67" r="2.96"/><path fill-rule="nonzero" d="M127.08 65.67c0-.98.4-1.87 1.04-2.51.65-.65 1.54-1.05 2.52-1.05s1.87.4 2.51 1.05a3.545 3.545 0 010 5.02c-.65.64-1.53 1.04-2.51 1.04-.98 0-1.87-.4-2.52-1.04l-.03-.04a3.545 3.545 0 01-1.01-2.47zm1.89-1.67a2.35 2.35 0 00-.69 1.67c0 .64.25 1.21.66 1.64l.03.02c.43.43 1.01.69 1.67.69a2.342 2.342 0 002.35-2.35c0-.65-.26-1.24-.69-1.67a2.35 2.35 0 00-1.66-.69c-.66 0-1.25.26-1.67.69z"/><circle fill="#FFD83D" fill-rule="nonzero" cx="137.37" cy="63.98" r="2.96"/><path fill-rule="nonzero" d="M133.82 63.98c0-.98.4-1.87 1.04-2.52.64-.64 1.53-1.04 2.51-1.04.98 0 1.87.4 2.51 1.05.65.64 1.05 1.53 1.05 2.51 0 .97-.4 1.86-1.04 2.51h-.01a3.545 3.545 0 01-5.02 0 3.563 3.563 0 01-1.04-2.51zm1.89-1.67a2.35 2.35 0 00-.69 1.67 2.342 2.342 0 002.35 2.35c.66 0 1.25-.26 1.67-.69.43-.42.69-1.01.69-1.66 0-.65-.26-1.24-.69-1.67-.42-.43-1.01-.69-1.67-.69-.65 0-1.24.26-1.66.69z"/><circle fill="#FFD83D" fill-rule="nonzero" cx="144.14" cy="62.85" r="2.96"/><path fill-rule="nonzero" d="M140.58 62.85c0-.98.4-1.87 1.04-2.52.65-.64 1.54-1.04 2.52-1.04s1.87.4 2.51 1.05a3.545 3.545 0 010 5.02c-.64.64-1.53 1.04-2.51 1.04-.98 0-1.87-.4-2.52-1.04a3.545 3.545 0 01-1.04-2.51zm1.89-1.67a2.35 2.35 0 00-.69 1.67c0 .65.26 1.24.69 1.67a2.35 2.35 0 003.33 0c.43-.43.69-1.02.69-1.67 0-.65-.26-1.25-.69-1.67a2.31 2.31 0 00-1.66-.69c-.65 0-1.24.26-1.67.69z"/><circle fill="#FFD83D" fill-rule="nonzero" cx="150.9" cy="62.18" r="2.96"/><path fill-rule="nonzero" d="M147.35 62.18c0-.98.4-1.87 1.04-2.51a3.545 3.545 0 015.02 0c.65.64 1.04 1.53 1.04 2.51 0 .98-.39 1.87-1.04 2.51-.64.65-1.53 1.04-2.51 1.04-.98 0-1.87-.39-2.51-1.04a3.545 3.545 0 01-1.04-2.51zm1.88-1.67c-.42.43-.69 1.02-.69 1.67 0 .65.27 1.24.69 1.67.43.42 1.02.69 1.67.69.65 0 1.24-.27 1.67-.69.42-.43.69-1.02.69-1.67 0-.65-.27-1.24-.69-1.67-.43-.42-1.02-.69-1.67-.69-.65 0-1.24.27-1.67.69z"/><circle fill="#FFD83D" fill-rule="nonzero" cx="157.53" cy="62.56" r="2.96"/><path fill-rule="nonzero" d="M153.98 62.56c0-.98.4-1.87 1.04-2.51l.04-.04c.64-.62 1.51-1 2.47-1 .98 0 1.87.39 2.51 1.04.65.64 1.05 1.53 1.05 2.51 0 .98-.4 1.87-1.04 2.51-.65.64-1.54 1.04-2.52 1.04s-1.87-.4-2.51-1.04a3.545 3.545 0 01-1.04-2.51zm1.89-1.67a2.35 2.35 0 00-.69 1.67c0 .65.26 1.24.69 1.67.42.42 1.01.69 1.66.69.65 0 1.24-.27 1.67-.7.43-.42.69-1.01.69-1.66 0-.65-.26-1.24-.69-1.67-.43-.42-1.02-.69-1.67-.69-.64 0-1.21.25-1.64.66l-.02.03z"/><circle fill="#FFD83D" fill-rule="nonzero" cx="163.85" cy="64.72" r="2.96"/><path fill-rule="nonzero" d="M160.3 64.72c0-.98.4-1.87 1.04-2.51l.04-.03c.64-.63 1.51-1.01 2.47-1.01.99 0 1.87.4 2.52 1.04l.03.04c.62.64 1.01 1.51 1.01 2.47 0 .98-.4 1.87-1.04 2.52-.65.64-1.53 1.04-2.52 1.04-.98 0-1.86-.4-2.51-1.05a3.545 3.545 0 01-1.04-2.51zm1.89-1.66a2.31 2.31 0 00-.69 1.66c0 .66.26 1.25.69 1.67.42.43 1.01.69 1.66.69.65 0 1.25-.26 1.67-.69.43-.43.69-1.02.69-1.67 0-.63-.25-1.21-.66-1.64l-.03-.02c-.42-.43-1.02-.69-1.67-.69-.63 0-1.21.25-1.63.66l-.03.03z"/><circle fill="#FFD83D" fill-rule="nonzero" cx="169.18" cy="68.64" r="2.96"/><path fill-rule="nonzero" d="M165.63 68.64c0-.98.4-1.87 1.04-2.51a3.545 3.545 0 015.02 0c.65.64 1.04 1.53 1.04 2.51 0 .98-.39 1.87-1.04 2.51-.64.65-1.53 1.04-2.51 1.04-.98 0-1.87-.39-2.51-1.04a3.545 3.545 0 01-1.04-2.51zm1.88-1.67c-.42.43-.69 1.02-.69 1.67 0 .65.27 1.24.69 1.67.43.42 1.02.69 1.67.69.65 0 1.24-.27 1.67-.69.42-.43.69-1.02.69-1.67 0-.65-.27-1.24-.69-1.67a2.35 2.35 0 00-3.33 0h-.01z"/><circle fill="#FFD83D" fill-rule="nonzero" cx="172.96" cy="74.1" r="2.96"/><path fill-rule="nonzero" d="M169.41 74.1c0-.97.4-1.86 1.04-2.51a3.545 3.545 0 015.02 0c.65.64 1.04 1.53 1.04 2.51 0 .98-.39 1.87-1.04 2.52a3.545 3.545 0 01-5.02 0l-.04-.04c-.62-.64-1-1.51-1-2.48zm1.88-1.66a2.35 2.35 0 00-.69 1.66c0 .64.26 1.22.67 1.64l.02.03c.43.43 1.02.69 1.67.69a2.357 2.357 0 001.67-4.02 2.35 2.35 0 00-1.67-.69c-.65 0-1.24.26-1.67.69z"/><circle fill="#FFD83D" fill-rule="nonzero" cx="174.78" cy="80.53" r="2.96"/><path fill-rule="nonzero" d="M171.23 80.53c0-.98.4-1.87 1.04-2.51a3.545 3.545 0 015.02 0h.01a3.545 3.545 0 010 5.02c-.65.65-1.54 1.04-2.52 1.04s-1.87-.39-2.51-1.04l-.03-.03a3.526 3.526 0 01-1.01-2.48zm1.89-1.67a2.35 2.35 0 00-.69 1.67c0 .64.25 1.22.66 1.64l.03.03a2.35 2.35 0 003.33 0c.43-.43.69-1.02.69-1.67 0-.65-.27-1.24-.69-1.67a2.35 2.35 0 00-3.33 0z"/><circle fill="#FFD83D" fill-rule="nonzero" cx="174.71" cy="87.2" r="2.96"/><path fill-rule="nonzero" d="M171.16 87.2c0-.98.4-1.87 1.04-2.52a3.545 3.545 0 015.02 0h.01c.64.65 1.04 1.54 1.04 2.52s-.4 1.87-1.04 2.51c-.65.64-1.54 1.04-2.52 1.04s-1.87-.4-2.51-1.04a3.563 3.563 0 01-1.04-2.51zm1.88-1.67c-.42.42-.68 1.01-.68 1.67 0 .65.26 1.24.69 1.66.42.43 1.01.69 1.66.69.65 0 1.24-.26 1.67-.69.43-.42.69-1.01.69-1.66 0-.65-.26-1.24-.69-1.67-.43-.43-1.01-.69-1.67-.69-.65 0-1.24.26-1.66.69h-.01z"/><circle fill="#FFD83D" fill-rule="nonzero" cx="173.44" cy="93.73" r="2.96"/><path fill-rule="nonzero" d="M169.89 93.73c0-.99.4-1.87 1.04-2.52a3.545 3.545 0 015.02 0 3.536 3.536 0 010 5.03 3.545 3.545 0 01-5.02 0 3.58 3.58 0 01-1.04-2.51zm1.88-1.67a2.357 2.357 0 000 3.33c.43.43 1.02.69 1.67.69.65 0 1.24-.26 1.67-.69.43-.42.69-1.01.69-1.66 0-.66-.26-1.25-.69-1.67a2.35 2.35 0 00-1.67-.69c-.65 0-1.24.26-1.67.69z"/><path fill="#FFD83D" fill-rule="nonzero" d="M122.69 71.18l.27 3.85c7.36-1.12 17.78-5.22 27.49-5.22 8.98 0 15.95 3.59 15.95 12.64 0 8.93-3.78 17.04-8.8 25.29l5.22 2.48c4.67-9.07 8.53-16.78 8.53-27.22 0-8.73-6.87-17.31-18.7-17.31-10.48 0-21.17 3.53-29.96 5.49z"/><path fill-rule="nonzero" d="M123.32 71.65l.19 2.69c2.46-.42 5.23-1.14 8.19-1.91 5.86-1.52 12.44-3.22 18.75-3.22 4.89 0 9.21 1.05 12.21 3.43 2.71 2.15 4.34 5.35 4.34 9.81 0 4.54-.96 8.87-2.56 13.11-1.52 4.03-3.6 7.97-5.99 11.93l4.11 1.94c2.22-4.32 4.24-8.34 5.71-12.51 1.53-4.3 2.48-8.77 2.48-13.92 0-4.45-1.85-8.86-5.27-12.03-3.07-2.84-7.41-4.69-12.83-4.69-7.91 0-15.98 2.05-23.25 3.88-2.08.53-4.09 1.04-6.08 1.49zm-.95 3.42l-.28-3.84c-.02-.29.18-.56.47-.63 2.03-.45 4.25-1.01 6.55-1.6 7.34-1.85 15.49-3.91 23.54-3.91 5.75 0 10.36 1.98 13.64 5.01 3.67 3.4 5.65 8.13 5.65 12.9 0 5.3-.97 9.9-2.54 14.32-1.56 4.39-3.7 8.6-6.04 13.16-.14.29-.49.42-.79.28l-5.22-2.47-.06-.04a.597.597 0 01-.2-.82c2.49-4.09 4.68-8.15 6.23-12.29 1.55-4.11 2.48-8.3 2.48-12.69 0-4.05-1.46-6.95-3.88-8.87-2.78-2.2-6.84-3.17-11.47-3.17-6.17 0-12.67 1.68-18.45 3.18-3.26.84-6.3 1.63-8.95 2.03l-.04.01a.603.603 0 01-.64-.56z"/><path fill="#FFD83D" fill-rule="nonzero" d="M118.52 31.46l-3.08 5.78 3.08 5.75 3.08-5.75-3.08-5.78zm0 14.58l-3.08 5.76 3.08 5.78 3.08-5.78-3.08-5.76z"/><path fill-rule="nonzero" d="M118.52 32.73l-2.41 4.51 2.41 4.49 2.41-4.49-2.41-4.51zm-3.61 4.23l3.08-5.78c.06-.1.14-.19.25-.24.29-.16.65-.05.81.24l3.08 5.78c.09.17.1.38 0 .56l-3.08 5.76c-.06.1-.14.18-.25.24-.29.16-.65.05-.81-.24l-3.08-5.76a.586.586 0 010-.56zm3.61 10.34l-2.41 4.5 2.41 4.51 2.41-4.51-2.41-4.5zm-3.61 4.22l3.08-5.76c.06-.1.14-.19.25-.24.29-.16.65-.05.81.24l3.08 5.76c.09.17.1.38 0 .56l-3.08 5.78c-.06.1-.14.18-.25.24-.29.16-.65.05-.81-.24l-3.08-5.78a.586.586 0 010-.56z"/><path fill="#FFD83D" fill-rule="nonzero" d="M107.53 44.52l4.86 3.08 4.85-3.08-4.85-3.09-4.86 3.09zm12.27 0l4.85 3.08 4.86-3.08-4.86-3.09-4.85 3.09z"/><path fill-rule="nonzero" d="M108.64 44.52l3.75 2.37 3.74-2.37-3.74-2.38-3.75 2.38zm3.43 3.59l-4.86-3.08a.687.687 0 01-.19-.19.608.608 0 01.18-.83l4.87-3.08c.19-.12.44-.13.64 0l4.8 3.06c.09.05.17.12.23.21.18.28.1.65-.18.82l-4.84 3.08a.59.59 0 01-.65.01zm8.84-3.59l3.74 2.37 3.75-2.37-3.75-2.38-3.74 2.38zm3.42 3.59l-4.85-3.09a.617.617 0 01-.18-.18c-.18-.28-.1-.65.18-.82l4.81-3.06c.19-.15.46-.17.68-.03l4.86 3.08c.07.05.14.11.19.19.18.28.09.65-.18.82l-4.86 3.08a.59.59 0 01-.65.01z"/><circle fill="#FFD83D" fill-rule="nonzero" cx="118.52" cy="44.59" r="2.34"/><path fill-rule="nonzero" d="M120.26 44.59c0-.48-.2-.92-.51-1.23-.31-.32-.75-.51-1.23-.51s-.92.2-1.23.51l-.03.03c-.3.31-.48.73-.48 1.2 0 .48.2.91.51 1.23.31.31.75.51 1.23.51s.92-.2 1.23-.51c.31-.32.51-.75.51-1.23zm.33-2.08c.54.54.86 1.27.86 2.08s-.32 1.54-.86 2.07c-.53.53-1.26.86-2.07.86-.81 0-1.54-.33-2.08-.86-.53-.53-.86-1.26-.86-2.07 0-.79.32-1.51.83-2.04l.03-.04c.54-.53 1.27-.86 2.08-.86s1.54.33 2.07.86z"/><circle fill="#FFD83D" fill-rule="nonzero" cx="118.52" cy="59.5" r="6.25"/><path fill-rule="nonzero" d="M124.18 59.5c0-1.56-.64-2.97-1.66-4a5.646 5.646 0 00-4-1.65 5.654 5.654 0 00-5.66 5.65c0 1.56.64 2.98 1.66 4a5.654 5.654 0 004 1.66c1.56 0 2.98-.64 4-1.66a5.654 5.654 0 001.66-4zm-.81-4.84c1.23 1.24 2 2.95 2 4.84 0 1.89-.77 3.61-2 4.85a6.84 6.84 0 01-4.85 2 6.84 6.84 0 01-4.85-2 6.84 6.84 0 01-2-4.85c0-1.89.76-3.61 2-4.84a6.848 6.848 0 014.85-2.01c1.89 0 3.61.77 4.85 2.01z"/><path fill-rule="nonzero" d="M116.5 53.44c0-.24.2-.45.45-.45s.45.21.45.45c0 1.14-.01 2.22-.02 3.15v.82c0 .24-.19.43-.43.44-.74.04-1.48.09-2.21.17-.73.08-1.46.18-2.18.3a.454.454 0 01-.52-.37.46.46 0 01.37-.52 39.03 39.03 0 014.08-.45v-.39c0-.7.01-1.52.01-3.15zm8.13 3.99a.451.451 0 01-.15.89c-.72-.12-1.44-.22-2.18-.3-.73-.08-1.47-.13-2.21-.17a.449.449 0 01-.43-.44v-3.97c0-.24.2-.45.45-.45s.45.21.45.45v3.54a39.03 39.03 0 014.07.45zm-12.09 4.05a.454.454 0 01-.52-.37c-.04-.25.13-.48.37-.52 1.01-.17 2.04-.3 3.06-.38 1.02-.09 2.04-.13 3.07-.13 1.03 0 2.05.04 3.06.13 1.03.08 2.06.21 3.07.38.24.04.41.27.37.52-.04.24-.27.41-.52.37-.98-.17-1.97-.29-2.99-.38a36.8 36.8 0 00-2.99-.12c-1.01 0-2.01.04-2.99.12-1.02.09-2.01.21-2.99.38z"/><path fill="#FFD83D" fill-rule="nonzero" d="M112.41 70.08c-.6 10.22-1.8 20.62-5.78 28.19l6.47-2.62c2.26-8.57 2.73-19.64 3.42-24.88l-4.11-.69zm12.22 0l-4.11.69c.69 5.24 1.16 16.31 3.42 24.88l6.47 2.62c-3.98-7.57-5.18-17.97-5.78-28.19z"/><path fill-rule="nonzero" d="M112.96 70.78c-.29 4.91-.74 9.85-1.59 14.5-.77 4.29-1.88 8.33-3.51 11.85l4.74-1.92c1.58-6.14 2.26-13.54 2.77-19.1.17-1.85.33-3.51.49-4.84l-2.9-.49zm-2.76 14.29c.87-4.79 1.32-9.92 1.61-15.01l.01-.08c.05-.32.36-.54.69-.49l4.11.69c.31.06.53.35.49.67-.18 1.42-.35 3.26-.55 5.37-.53 5.7-1.23 13.3-2.88 19.58-.05.18-.18.33-.36.41l-6.46 2.61a.61.61 0 01-.51-.02.608.608 0 01-.25-.81c1.96-3.72 3.24-8.16 4.1-12.92zm13.88-14.29l-2.9.49c.16 1.33.32 2.99.49 4.84.51 5.56 1.19 12.96 2.77 19.1l4.74 1.92c-1.63-3.52-2.74-7.56-3.51-11.85-.85-4.65-1.3-9.59-1.59-14.5zm-3.66-.6l4.11-.69h.07c.33-.02.61.23.63.56.29 5.09.74 10.23 1.61 15.02.86 4.76 2.14 9.2 4.1 12.92.07.15.09.33.02.5-.12.31-.47.46-.77.33l-6.47-2.61a.597.597 0 01-.36-.41c-1.65-6.28-2.36-13.89-2.88-19.58-.19-2.09-.36-3.92-.55-5.34v-.01c-.05-.32.17-.63.49-.69z"/><path fill="#FFD83D" fill-rule="nonzero" d="M118.51 92.21c-7.72 0-13.4 3.64-13.74 12.92-1.89-3.32-9.87-13.77-17.33-12.37-4.43.83-8.35 6.97-7.68 14.02-3.67-10.55-14.42-12.28-22.26-6.04 6.96 5.72 10.06 22.63 15.92 29.96h90.18c5.86-7.33 8.98-24.24 15.94-29.96-7.84-6.24-18.59-4.51-22.26 6.04.67-7.05-3.27-13.19-7.7-14.02-7.45-1.4-15.42 9.05-17.31 12.37-.34-9.28-6.04-12.92-13.76-12.92z"/><path fill-rule="nonzero" d="M118.51 92.81c-3.91 0-7.27.96-9.6 3.15-2.09 1.97-3.39 4.97-3.54 9.19-.01.33-.29.59-.62.58a.621.621 0 01-.5-.3c-1.14-2.01-4.54-6.65-8.68-9.62-2.53-1.8-5.33-2.97-8.02-2.47-2.11.4-4.11 2.13-5.47 4.63-1.32 2.39-2.04 5.47-1.73 8.75.03.33-.21.62-.53.65a.581.581 0 01-.62-.4c-.64-1.82-1.49-3.38-2.51-4.66-1.74-2.18-3.96-3.58-6.38-4.2-2.42-.63-5.06-.49-7.61.4-1.46.51-2.9 1.26-4.26 2.26 3.7 3.44 6.28 9.87 8.81 16.18 2.02 5.02 4.01 9.98 6.46 13.15h89.6c2.45-3.17 4.44-8.12 6.46-13.15 2.54-6.31 5.13-12.74 8.83-16.18-1.36-1-2.8-1.75-4.26-2.26-2.55-.89-5.19-1.03-7.61-.4-2.42.62-4.64 2.02-6.38 4.21-1.02 1.27-1.87 2.83-2.51 4.65a.6.6 0 01-.76.37.596.596 0 01-.39-.64c.3-3.27-.42-6.34-1.73-8.73-1.38-2.5-3.38-4.23-5.49-4.63-2.69-.5-5.48.67-8.01 2.47-4.14 2.97-7.53 7.61-8.67 9.62-.17.28-.53.38-.82.22a.596.596 0 01-.3-.51c-.16-4.22-1.45-7.21-3.55-9.18-2.33-2.19-5.69-3.15-9.61-3.15zm-10.42 2.28c2.58-2.42 6.21-3.47 10.42-3.47s7.85 1.05 10.43 3.47c2.01 1.88 3.35 4.57 3.78 8.21 1.65-2.4 4.6-5.99 8.05-8.46 2.76-1.97 5.86-3.24 8.92-2.67 2.47.46 4.77 2.42 6.31 5.23 1.02 1.85 1.71 4.07 1.9 6.48.45-.84.96-1.61 1.51-2.31 1.91-2.4 4.35-3.93 7.02-4.62 2.65-.69 5.53-.53 8.3.43 1.8.63 3.55 1.59 5.18 2.89.04.03.06.06.09.09a.6.6 0 01-.08.84c-3.77 3.1-6.43 9.71-9.04 16.2-2.09 5.19-4.15 10.31-6.78 13.62a.58.58 0 01-.5.28H73.42c-.17 0-.34-.08-.46-.23-2.65-3.31-4.72-8.45-6.81-13.68-2.6-6.47-5.25-13.07-9.01-16.17a.573.573 0 01-.11-.11.593.593 0 01.1-.84c1.63-1.3 3.38-2.26 5.18-2.89 2.78-.96 5.65-1.12 8.3-.43 2.67.69 5.11 2.22 7.01 4.62.56.7 1.07 1.47 1.52 2.31.19-2.41.88-4.64 1.89-6.49 1.54-2.8 3.84-4.76 6.3-5.22 3.06-.57 6.16.7 8.93 2.67 3.45 2.47 6.41 6.06 8.05 8.46.44-3.64 1.78-6.33 3.78-8.21z"/><path fill-rule="nonzero" d="M163.47 130.7c0 3.34-20.14 7.01-44.95 7.01-24.81 0-44.95-3.67-44.95-7.01s20.14-5.09 44.95-5.09c24.81 0 44.95 1.75 44.95 5.09z"/><path fill-rule="nonzero" d="M163.91 130.7c0 1.97-5.55 3.95-14.45 5.34-8.08 1.26-18.97 2.12-30.94 2.12-11.97 0-22.86-.86-30.94-2.12-8.9-1.39-14.45-3.37-14.45-5.34 0-1.88 4.76-3.25 12.53-4.13 8.23-.93 19.91-1.41 32.86-1.41s24.63.48 32.86 1.41c7.77.88 12.53 2.25 12.53 4.13zm-14.59 4.46c8.43-1.32 13.7-2.97 13.7-4.46 0-1.32-4.46-2.41-11.74-3.24-8.18-.92-19.83-1.4-32.76-1.4s-24.58.48-32.76 1.4c-7.28.83-11.74 1.92-11.74 3.24 0 1.48 5.27 3.14 13.7 4.46 8.02 1.25 18.86 2.1 30.8 2.1 11.93 0 22.78-.85 30.8-2.1z"/><circle fill="#FFD83D" fill-rule="nonzero" cx="118.52" cy="68.14" r="2.1"/><path fill-rule="nonzero" d="M120.17 68.14a1.657 1.657 0 00-1.65-1.65 1.657 1.657 0 00-1.65 1.65c0 .46.19.87.48 1.17.3.29.72.48 1.17.48.46 0 .87-.19 1.17-.48.29-.3.48-.71.48-1.17zm.15-1.8c.46.46.74 1.1.74 1.8s-.28 1.34-.74 1.8c-.46.46-1.1.75-1.8.75s-1.34-.29-1.8-.75c-.46-.46-.75-1.1-.75-1.8s.29-1.34.75-1.8c.46-.46 1.1-.74 1.8-.74s1.34.28 1.8.74z"/><circle fill="#FFD83D" fill-rule="nonzero" cx="118.52" cy="72.68" r="2.23"/><path fill-rule="nonzero" d="M120.3 72.68c0-.5-.2-.94-.52-1.27a1.784 1.784 0 00-2.52 0c-.33.33-.52.77-.52 1.27 0 .49.19.94.52 1.26a1.784 1.784 0 002.52 0c.32-.32.52-.77.52-1.26zm.11-1.9h.01c.48.49.78 1.16.78 1.9s-.3 1.41-.78 1.89a2.676 2.676 0 01-3.8 0c-.48-.48-.78-1.15-.78-1.89s.3-1.41.78-1.9c.49-.49 1.16-.79 1.9-.79s1.41.3 1.89.79z"/><circle fill="#FFD83D" fill-rule="nonzero" cx="118.52" cy="77.56" r="2.44"/><path fill-rule="nonzero" d="M120.51 77.56c0-.55-.22-1.05-.58-1.41-.36-.36-.86-.58-1.41-.58-.55 0-1.05.22-1.41.58-.36.36-.58.86-.58 1.41 0 .55.22 1.04.58 1.4.36.36.86.59 1.41.59.55 0 1.05-.23 1.41-.59.36-.36.58-.85.58-1.4zm.05-2.05c.52.53.85 1.25.85 2.05 0 .79-.33 1.52-.85 2.04s-1.24.84-2.04.84-1.52-.32-2.04-.84c-.53-.53-.85-1.25-.85-2.04 0-.8.32-1.52.85-2.05a2.87 2.87 0 012.04-.84c.8 0 1.52.32 2.04.84z"/><circle fill="#FFD83D" fill-rule="nonzero" cx="118.52" cy="82.99" r="2.78"/><path fill-rule="nonzero" d="M120.85 82.99c0-.65-.26-1.23-.68-1.66-.42-.42-1.01-.68-1.65-.68-.64 0-1.23.26-1.65.69-.42.42-.69 1-.69 1.65 0 .64.27 1.22.69 1.65.42.42 1.01.68 1.65.68.64 0 1.23-.26 1.65-.68.42-.43.68-1.01.68-1.65zm-.04-2.29c.58.59.94 1.39.94 2.29a3.228 3.228 0 01-3.23 3.23 3.228 3.228 0 01-3.23-3.23c0-.9.36-1.7.94-2.29.59-.58 1.4-.95 2.29-.95.89 0 1.7.37 2.28.95h.01z"/><circle fill="#FFD83D" fill-rule="nonzero" cx="118.52" cy="89.03" r="3.06"/><path fill-rule="nonzero" d="M121.13 89.03c0-.72-.29-1.37-.76-1.84-.48-.47-1.13-.77-1.85-.77-.72 0-1.37.3-1.85.77-.47.47-.76 1.12-.76 1.84s.29 1.38.76 1.85c.48.47 1.13.76 1.85.76.72 0 1.37-.29 1.84-.76.48-.47.77-1.13.77-1.85zm-.13-2.48c.63.64 1.03 1.52 1.03 2.48 0 .97-.4 1.85-1.03 2.48-.64.64-1.51 1.03-2.48 1.03s-1.84-.39-2.48-1.03a3.507 3.507 0 01-1.03-2.48c0-.97.4-1.84 1.03-2.48.64-.63 1.51-1.02 2.48-1.02s1.84.39 2.48 1.02zM117.3 94.92c-.33-.01-.64.27-.56.8.1.62.22 1.79.34 2.58.13.89.65.68.79-.02.13-.69.07-1.14.11-2.43.01-.64-.34-.93-.68-.93zm2.44 0c-.34 0-.69.29-.68.93.04 1.29-.02 1.74.11 2.43.14.7.66.91.79.02.12-.79.24-1.96.34-2.58.08-.53-.23-.81-.56-.8zm-4.6.33c-.31.04-.62.35-.6.68.03.59.2 1.31.26 2.2.07.93.72.57.78.04.07-.53.15-1.31.08-2.34-.02-.38-.19-.55-.39-.58h-.13zm6.63 0c-.2.03-.36.2-.39.58-.07 1.03.01 1.81.07 2.34.07.53.72.89.79-.04.06-.89.23-1.61.26-2.2.02-.33-.29-.64-.6-.68h-.13zm-9.23 1.05c-.28.07-.53.4-.45.78.17.76.32 1.61.32 2.38 0 .66.56.42.6-.04.03-.46.09-1.44.09-2.34 0-.66-.28-.85-.56-.78zm11.77 0c-.19.05-.37.28-.37.78 0 .9.06 1.88.09 2.34.04.46.6.7.6.04 0-.77.15-1.62.32-2.38.08-.38-.17-.71-.45-.78a.308.308 0 00-.19 0zm-35.34.1c-.34-.01-.57.44-.34.94.36.79.75 1.29 1.12 2.15.33.76.84.28.67-.25-.16-.53-.34-1.12-.84-2.24-.18-.42-.42-.59-.61-.6zm59.1 0c-.2.01-.43.18-.61.6-.5 1.12-.68 1.71-.85 2.24-.16.53.35 1.01.68.25.37-.86.76-1.36 1.12-2.15.23-.5 0-.95-.34-.94zm-56.71.04c-.25.07-.39.38-.24.75.29.72.72 1.47 1.02 2.26.27.69.86.5.66-.13-.2-.63-.26-1-.66-2.19-.19-.6-.54-.77-.78-.69zm54.13 0c-.21.04-.44.24-.59.69-.4 1.19-.46 1.56-.66 2.19-.2.63.39.82.66.13.3-.79.73-1.54 1.02-2.26.15-.37 0-.68-.24-.75a.308.308 0 00-.19 0zm-51.14.58c-.31.06-.55.53-.34 1.1.27.73.64 1.42.98 2.24.33.83.88.66.74.14-.13-.53-.29-1.41-.69-2.73-.17-.58-.45-.8-.69-.75zm48.34 0c-.24-.05-.52.17-.69.75-.4 1.32-.56 2.2-.69 2.73-.14.52.41.69.74-.14.34-.82.71-1.51.98-2.24.21-.57-.03-1.04-.34-1.1zm-55.74.41c-.34.03-.64.58-.43.99.33.66.54.89.86 1.59.33.73.69.16.56-.3-.13-.46-.3-1-.47-1.66-.12-.49-.32-.64-.52-.62zm63.14 0c-.2-.02-.4.13-.52.62-.17.66-.34 1.2-.47 1.66-.13.46.23 1.03.56.3.32-.7.53-.93.86-1.59.21-.41-.1-.96-.43-.99zM110 99.1c-.35 0-.73.47-.6.9.2.69.5 1.31.73 2.21.2.79.76.39.73-.13-.04-.53-.13-1.25-.36-2.38-.09-.42-.3-.6-.5-.6zm17.04 0c-.21 0-.41.18-.5.6-.23 1.13-.32 1.85-.36 2.38-.03.52.53.92.73.13.23-.9.53-1.52.73-2.21.13-.43-.25-.9-.6-.9zm-8.52.71c-.43 0-.49.58-.5 1.05-.05 1.54-.69 3.03-1.24 3.78-.54.74-1.35.54-2.09.15-.75-.4-1.19-.7-1.98-1.29-.8-.6-1.4-.25-.45 1.1 2.76 3.93 5.76 7.3 5.76 13.72 0 .83.14 1.08.5 1.08s.52-.25.52-1.08c0-6.42 2.98-9.79 5.74-13.72.95-1.35.35-1.7-.45-1.1-.79.59-1.23.89-1.98 1.29-.74.39-1.55.59-2.09-.15-.55-.75-1.19-2.24-1.24-3.78-.01-.47-.07-1.05-.5-1.05zm-21.1-.96c-.04 0-.08.01-.12.02-.16.05-.26.24-.2.58.11.6.52 1.77.69 2.33.16.57.86.45.69-.31-.16-.76-.16-.99-.35-1.85-.11-.47-.45-.76-.71-.77zm42.2 0c-.26.01-.6.3-.71.77-.19.86-.19 1.09-.35 1.85-.17.76.53.88.69.31.17-.56.58-1.73.69-2.33.06-.34-.04-.53-.2-.58-.04-.01-.08-.02-.12-.02zm-54.75.24c-.34.03-.59.46-.24 1.11.38.69 1.03 1.56 1.33 2.05.29.5.81.16.45-.47-.37-.62-.49-1.35-.92-2.24-.16-.33-.41-.46-.62-.45zm67.3 0c-.21-.01-.46.12-.62.45-.43.89-.55 1.62-.92 2.24-.36.63.16.97.45.47.3-.49.95-1.36 1.33-2.05.35-.65.1-1.08-.24-1.11zm-86.25 1.99c-.4-.02-.53.7-.15 1.18.54.7.92 1.07 1.55 1.63.5.44.64-.14.39-.58-.25-.45-.6-.9-1.1-1.65-.27-.4-.51-.57-.69-.58zm105.2 0c-.18.01-.42.18-.69.58-.5.75-.85 1.2-1.1 1.65-.25.44-.11 1.02.39.58.63-.56 1.01-.93 1.55-1.63.38-.48.25-1.2-.15-1.18zm-102.19.6c-.32.01-.53.24-.28.79.35.78.82 1.66 1.12 2.26.3.59 1.2.8.84-.13s-.44-1.4-.77-2.26c-.16-.43-.59-.66-.91-.66zm99.18 0c-.32 0-.75.23-.91.66-.33.86-.41 1.33-.77 2.26-.36.93.54.72.84.13.3-.6.77-1.48 1.12-2.26.25-.55.04-.78-.28-.79zm-105.01.21c-.47 0-.51.47-.1.77.55.39 1.2.83 1.83 1.34.75.6 1.04.05.64-.45-.4-.49-.78-1-1.78-1.49-.24-.13-.44-.17-.59-.17zm110.84 0c-.15 0-.35.04-.59.17-1 .49-1.38 1-1.78 1.49-.4.5-.11 1.05.64.45.63-.51 1.28-.95 1.83-1.34.41-.3.37-.77-.1-.77zm-65.59.43c-.26.03-.48.33-.37.71.2.69.42 1.43.56 2.15.13.69.93.7.8.07-.13-.63-.2-1.41-.43-2.37-.08-.36-.27-.53-.45-.56a.205.205 0 00-.11 0zm20.23 0c-.18.03-.36.2-.45.56-.23.96-.3 1.74-.43 2.37-.13.63.67.62.8-.07.14-.72.36-1.46.56-2.15.11-.38-.11-.68-.37-.71a.205.205 0 00-.11 0zm-38.23-1.19c-.2.06-.32.45-.17.99.85 3.03 1.1 4.62.95 5.37-.14.74-.55.84-1.1.59-.54-.24-1.18-.6-1.68-.95s-1.01.07-.3.66c3.62 2.97 6.13 6.37 7.1 10.5.2.84.73.94.58 0-.82-5.2-.98-9.47.27-12.15.46-1.01-.01-1.97-.75-.34-.5 1.1-1.3 1.53-1.95.58-.64-.94-1.97-3.45-2.37-4.6-.15-.42-.33-.62-.49-.65a.139.139 0 00-.09 0zm56.25 0c-.16.03-.34.23-.49.65-.4 1.15-1.73 3.66-2.37 4.6-.65.95-1.45.52-1.95-.58-.74-1.63-1.21-.67-.75.34 1.24 2.68 1.09 6.95.27 12.15-.15.94.38.84.58 0 .97-4.13 3.48-7.53 7.1-10.5.71-.59.2-1.01-.3-.66s-1.14.71-1.68.95c-.55.25-.96.15-1.11-.59-.14-.75.11-2.34.96-5.37.15-.54.03-.93-.17-.99a.139.139 0 00-.09 0zm-74.46 1.45c-.32 0-.59.23-.45.73.24.79.74 1.65.9 2.15.17.49.7.26.6-.43-.1-.7-.15-1.11-.28-1.87-.07-.38-.44-.58-.77-.58zm92.76 0c-.33 0-.7.2-.77.58-.13.76-.18 1.17-.28 1.87-.1.69.43.92.6.43.16-.5.66-1.36.9-2.15.14-.5-.13-.73-.45-.73zm-81.52-1.04c-.38-.07-.44.91-.11 1.31.43.53 1.02 1.17 1.62 1.89.5.59.8.06.51-.43-.3-.5-.74-1.03-1.54-2.28-.2-.32-.36-.46-.48-.49zm70.28 0c-.12.03-.28.17-.48.49-.8 1.25-1.24 1.78-1.54 2.28-.29.49.01 1.02.51.43.6-.72 1.19-1.36 1.62-1.89.33-.4.27-1.38-.11-1.31zm-78.96 2.37c-.23-.02-.43.17-.33.65.14.67.34 1.22.5 1.85.17.63.6.52.6-.07 0-.6-.11-1.26-.21-1.89-.05-.31-.32-.53-.56-.54zm87.64 0c-.24.01-.52.23-.56.54-.1.63-.21 1.29-.21 1.89 0 .59.43.7.6.07.16-.63.36-1.18.5-1.85.1-.48-.1-.67-.33-.65zm-79.8.85c-.37.05-.7.41-.27.97.7.89 1.46 1.52 1.72 1.85.27.33.94.21.51-.49-.44-.71-1.11-1.56-1.4-2.09-.11-.2-.34-.28-.56-.24zm71.81 0a.51.51 0 00-.41.24c-.29.53-.96 1.38-1.4 2.09-.43.7.24.82.51.49.26-.33 1.02-.96 1.72-1.85.43-.56.1-.92-.27-.97a.378.378 0 00-.15 0zm-84.17 2.49c-.29-.02-.39.21 0 .75.89 1.22 1.88 3.08 1.94 3.87.07.79-.32.79-.69.79-1.09 0-1.62-.8-2.61-1.03-1-.23-1.14.29-.43.8 3.63 2.65 7.28 5.6 8.74 8.28.6 1.09 1.4 1.49.96.45-1.37-3.19-1.7-5.9-1.4-7.53.29-1.64.7-2.74.65-3.68-.05-.95-.58-.88-.8 0-.15.59-.44 1.38-.64 1.68-.2.29-1 .46-1.76-.56-.76-1.03-2.68-3-3.31-3.5-.23-.19-.47-.3-.65-.32zm96.68 0c-.18.02-.42.13-.65.32-.63.5-2.55 2.47-3.31 3.5-.76 1.02-1.56.85-1.76.56-.2-.3-.49-1.09-.64-1.68-.22-.88-.75-.95-.8 0-.05.94.36 2.04.65 3.68.3 1.63-.03 4.34-1.4 7.53-.44 1.04.36.64.96-.45 1.46-2.68 5.11-5.63 8.74-8.28.71-.51.57-1.03-.43-.8-.99.23-1.52 1.03-2.61 1.03-.37 0-.76 0-.69-.79.06-.79 1.05-2.65 1.94-3.87.39-.54.29-.77 0-.75z"/><path fill="#FFD83D" fill-rule="nonzero" d="M75.55 126.89l1.16 3.69-1.16-3.69zm2.4-.7l1.03 3.73-1.03-3.73zm2.59-.43l.71 3.81-.71-3.81zm2.4-.48l.76 3.8-.76-3.8zm3.09-.31l.61 3.83-.61-3.83zm3.28.01l.66 3.81-.66-3.81zm3.2-1.08l.48 3.84-.48-3.84zm3.01.19l.48 3.84-.48-3.84zm2.92-.39l.48 3.84-.48-3.84zm2.92-.3l.27 3.86-.27-3.86zm3.13 0l.23 3.86-.23-3.86zm2.84-.2l.19 3.87-.19-3.87zm3.12-.19l.17 3.87-.17-3.87zm3.6-.1l.16 3.87-.16-3.87zm47.44 3.98l-1.16 3.69 1.16-3.69zm-2.4-.7l-1.03 3.73 1.03-3.73zm-2.59-.43l-.71 3.81.71-3.81zm-2.4-.48l-.76 3.8.76-3.8zm-3.09-.31l-.61 3.83.61-3.83zm-3.28.01l-.66 3.81.66-3.81zm-3.2-1.08l-.48 3.84.48-3.84zm-3.01.19l-.48 3.84.48-3.84zm-2.92-.39l-.48 3.84.48-3.84zm-2.92-.3l-.27 3.86.27-3.86zm-3.13 0l-.23 3.86.23-3.86zm-2.84-.2l-.19 3.87.19-3.87zm-3.12-.19l-.17 3.87.17-3.87zm-3.6-.1l-.16 3.87.16-3.87zm-4.47-.25v4.26-4.26zm0 0z"/><path fill-rule="nonzero" d="M75.12 127.02c-.08-.23.05-.49.29-.56.24-.08.49.05.56.29l1.17 3.69c.07.24-.06.49-.29.57a.462.462 0 01-.57-.3l-1.16-3.69zm2.39-.71c-.06-.24.08-.49.32-.55.23-.07.48.07.55.31l1.03 3.73c.07.24-.07.48-.31.55a.438.438 0 01-.55-.31l-1.04-3.73zm2.59-.47c-.05-.24.11-.48.36-.52.24-.05.47.12.52.36l.71 3.81c.04.24-.12.47-.36.52a.447.447 0 01-.52-.36l-.71-3.81zm2.4-.47c-.05-.25.11-.48.35-.53.25-.05.48.11.53.35l.76 3.8c.05.24-.11.48-.35.53a.46.46 0 01-.53-.36l-.76-3.79zm3.08-.33c-.03-.24.13-.47.38-.51.24-.04.47.13.51.37l.61 3.83c.04.24-.12.47-.37.51a.45.45 0 01-.51-.37l-.62-3.83zm3.28.01a.45.45 0 01.37-.51c.24-.05.48.12.52.36l.66 3.82c.04.24-.12.47-.36.51a.44.44 0 01-.52-.36l-.67-3.82zm3.2-1.1a.45.45 0 01.39-.5c.25-.03.47.14.5.39l.48 3.84a.449.449 0 01-.89.11l-.48-3.84zm3.02.19c-.03-.24.14-.47.39-.5.24-.03.47.15.5.39l.48 3.85c.03.24-.15.47-.39.5a.45.45 0 01-.5-.39l-.48-3.85zm2.91-.38a.45.45 0 01.39-.5c.25-.03.47.14.5.39l.48 3.84c.03.24-.14.47-.39.5a.456.456 0 01-.5-.39l-.48-3.84zm2.93-.33c-.02-.25.17-.46.41-.48.25-.01.46.17.48.42l.27 3.86c.01.25-.18.46-.42.48a.449.449 0 01-.48-.42l-.26-3.86zm3.12-.01c-.01-.24.18-.46.42-.47.25-.01.46.18.48.42l.23 3.87c.01.24-.18.46-.42.47a.449.449 0 01-.48-.42l-.23-3.87zm2.84-.2c-.01-.24.18-.45.43-.47.24-.01.45.18.46.43l.2 3.87a.446.446 0 11-.89.04l-.2-3.87zm3.13-.2a.446.446 0 01.89-.03l.16 3.87a.446.446 0 01-.89.03l-.16-3.87zm3.59-.09c-.01-.25.19-.46.43-.47.25-.01.46.19.47.43l.16 3.87c.01.25-.18.46-.43.47a.455.455 0 01-.47-.43l-.16-3.87zm47.47 3.82c.07-.24.32-.37.56-.29.23.07.37.33.29.56l-1.17 3.69c-.07.24-.32.37-.56.3a.465.465 0 01-.29-.57l1.17-3.69zm-2.41-.68c.07-.24.32-.38.55-.31.24.06.38.31.32.55l-1.04 3.73c-.06.24-.31.38-.55.31a.442.442 0 01-.31-.55l1.03-3.73zm-2.6-.39c.05-.24.28-.41.52-.36.25.04.41.28.36.52l-.71 3.81c-.04.24-.28.4-.52.36a.457.457 0 01-.36-.52l.71-3.81zm-2.4-.49c.05-.24.28-.4.53-.35.24.05.4.28.35.53l-.76 3.79a.46.46 0 01-.53.36.453.453 0 01-.35-.53l.76-3.8zm-3.09-.29a.45.45 0 01.51-.37c.25.04.42.27.38.51l-.62 3.83a.45.45 0 01-.51.37.456.456 0 01-.38-.51l.62-3.83zm-3.28 0c.05-.24.28-.41.52-.36.25.04.41.27.37.51l-.67 3.82c-.04.24-.28.41-.52.36a.435.435 0 01-.36-.51l.66-3.82zm-3.2-1.06c.03-.25.25-.42.5-.39.24.03.42.25.39.5l-.48 3.84a.449.449 0 01-.89-.11l.48-3.84zm-3.02.19c.03-.24.26-.42.5-.39.25.03.42.26.39.5l-.48 3.85a.45.45 0 01-.5.39.456.456 0 01-.39-.5l.48-3.85zm-2.91-.38c.03-.25.25-.42.5-.39.24.03.42.25.39.5l-.48 3.84c-.03.24-.26.42-.5.39a.449.449 0 01-.39-.5l.48-3.84zm-2.93-.28c.02-.25.23-.43.48-.42.24.02.43.23.41.48l-.26 3.86c-.02.25-.23.44-.48.42a.448.448 0 01-.41-.48l.26-3.86zm-3.13 0a.46.46 0 01.47-.42c.25.01.44.23.43.47l-.23 3.87c-.02.25-.23.44-.48.42a.454.454 0 01-.42-.47l.23-3.87zm-2.83-.19c.01-.25.22-.44.46-.43.25.02.44.23.43.47l-.2 3.87a.446.446 0 11-.89-.04l.2-3.87zm-3.13-.19a.446.446 0 01.89.03l-.16 3.87a.446.446 0 01-.89-.03l.16-3.87zm-3.6-.1c.01-.24.22-.44.47-.43.24.01.44.22.43.47l-.16 3.87c-.01.24-.22.44-.47.43a.455.455 0 01-.43-.47l.16-3.87zm-4.47-.23c0-.25.2-.45.45-.45s.45.2.45.45v4.26c0 .25-.2.45-.45.45s-.45-.2-.45-.45v-4.26z"/><path fill="#CCC" fill-rule="nonzero" d="M31.65 0h448.7c8.7 0 16.62 3.56 22.35 9.3 5.74 5.73 9.3 13.65 9.3 22.35v293.49c0 8.7-3.56 16.61-9.3 22.35-5.73 5.74-13.65 9.3-22.35 9.3H31.65c-8.7 0-16.62-3.56-22.35-9.3-5.74-5.74-9.3-13.65-9.3-22.35V31.65c0-8.7 3.56-16.62 9.3-22.35C15.03 3.56 22.95 0 31.65 0zm448.7 1.99H31.65c-8.16 0-15.57 3.34-20.95 8.71-5.37 5.38-8.71 12.79-8.71 20.95v293.49c0 8.15 3.34 15.57 8.71 20.94 5.38 5.38 12.79 8.71 20.95 8.71h448.7c8.16 0 15.57-3.33 20.95-8.71 5.37-5.37 8.71-12.79 8.71-20.94V31.65c0-8.16-3.34-15.57-8.71-20.95-5.38-5.37-12.79-8.71-20.95-8.71z"/><path fill="#CE1126" d="M511 179.14v146c0 16.86-13.79 30.65-30.65 30.65H31.65C14.79 355.79 1 342 1 325.14v-146h510z"/></svg>