<svg xmlns="http://www.w3.org/2000/svg" shape-rendering="geometricPrecision" text-rendering="geometricPrecision" image-rendering="optimizeQuality" fill-rule="evenodd" clip-rule="evenodd" viewBox="0 0 512 356.79"><g fill-rule="nonzero"><path fill="#fff" d="M31.65 1h448.7C497.21 1 511 14.79 511 31.65v293.49c0 16.86-13.79 30.65-30.65 30.65H31.65C14.79 355.79 1 342 1 325.14V31.65C1 14.79 14.79 1 31.65 1z"/><path fill="#CE1126" d="M511 179.14H1V31.65C1 14.79 14.79 1 31.65 1h448.7C497.21 1 511 14.79 511 31.65v147.49z"/><path fill="#CCC" d="M31.65 0h448.7c8.7 0 16.62 3.56 22.35 9.3 5.74 5.73 9.3 13.65 9.3 22.35v293.49c0 8.7-3.56 16.61-9.3 22.35-5.73 5.74-13.65 9.3-22.35 9.3H31.65c-8.7 0-16.62-3.56-22.35-9.3-5.74-5.74-9.3-13.65-9.3-22.35V31.65c0-8.7 3.56-16.62 9.3-22.35C15.03 3.56 22.95 0 31.65 0zm448.7 1.99H31.65c-8.16 0-15.57 3.34-20.95 8.71-5.37 5.38-8.71 12.79-8.71 20.95v293.49c0 8.15 3.34 15.57 8.71 20.94 5.38 5.38 12.79 8.71 20.95 8.71h448.7c8.16 0 15.57-3.33 20.95-8.71 5.37-5.37 8.71-12.79 8.71-20.94V31.65c0-8.16-3.34-15.57-8.71-20.95-5.38-5.37-12.79-8.71-20.95-8.71z"/></g></svg>