<svg xmlns="http://www.w3.org/2000/svg" shape-rendering="geometricPrecision" text-rendering="geometricPrecision" image-rendering="optimizeQuality" fill-rule="evenodd" clip-rule="evenodd" viewBox="0 0 512 356.79"><g fill-rule="nonzero"><path fill="#fff" d="M24.79 1.78h462.42C500.8 4.92 511 17.15 511 31.65v293.49c0 16.86-13.79 30.65-30.65 30.65H31.65C14.79 355.79 1 342 1 325.14V31.65C1 17.15 11.2 4.92 24.79 1.78z"/><path fill="#D22730" d="M1 325.14V31.65C1 17.15 11.2 4.92 24.79 1.78h462.42C500.8 4.92 511 17.15 511 31.65v154.84L16.03 351.48C7.05 346.12 1 336.3 1 325.14z"/><path fill="#FED141" d="M1 325.14V31.65C1 17.15 11.2 4.92 24.79 1.78h449.16L11.76 348.42C5.19 342.78 1 334.43 1 325.14z"/><path fill="#002F6C" d="M1 325.14V31.65C1 17.15 11.2 4.92 24.79 1.78h212.68L8.52 345.2C3.84 339.82 1 332.79 1 325.14z"/><path fill="#007A33" d="M19.74 353.37L511 271.49v53.65c0 16.86-13.79 30.65-30.65 30.65H31.65c-4.22 0-8.24-.86-11.91-2.42z"/><path fill="#CCC" d="M31.65 0h448.7c8.7 0 16.62 3.56 22.35 9.3 5.74 5.73 9.3 13.65 9.3 22.35v293.49c0 8.7-3.56 16.61-9.3 22.35-5.73 5.74-13.65 9.3-22.35 9.3H31.65c-8.7 0-16.62-3.56-22.35-9.3-5.74-5.74-9.3-13.65-9.3-22.35V31.65c0-8.7 3.56-16.62 9.3-22.35C15.03 3.56 22.95 0 31.65 0zm448.7 1.99H31.65c-8.16 0-15.57 3.34-20.95 8.71-5.37 5.38-8.71 12.79-8.71 20.95v293.49c0 8.15 3.34 15.57 8.71 20.94 5.38 5.38 12.79 8.71 20.95 8.71h448.7c8.16 0 15.57-3.33 20.95-8.71 5.37-5.37 8.71-12.79 8.71-20.94V31.65c0-8.16-3.34-15.57-8.71-20.95-5.38-5.37-12.79-8.71-20.95-8.71z"/></g></svg>